<?xml version="1.0" encoding="utf-8"?>
<!-- Generator: Adobe Illustrator 28.1.0, SVG Export Plug-In . SVG Version: 6.00 Build 0)  -->
<svg version="1.1" id="cupcake" xmlns="http://www.w3.org/2000/svg" xmlns:xlink="http://www.w3.org/1999/xlink" x="0px" y="0px"
	 viewBox="0 0 914.5 1193.8" style="enable-background:new 0 0 914.5 1193.8;" xml:space="preserve">
<style type="text/css">
	.st0{fill:#F5EEFF;}
	.st1{fill:#8246AF;}
	.st2{fill:#6C379B;}
	.st3{fill:#FFA300;}
	.st4{fill:#E58D00;}
	.st5{fill:#F9A426;}
	.st6{fill:#FFFFFF;}
</style>
<path id="patty" class="st0" d="M871.1,703.7l-12.4-28l-32.9,49.3l-0.7,1.1h-0.5l-1.3,0.1h-0.5l-0.8-0.8l-39.8-41.5L750.7,731
	l-38.5-42l-41.9,48.9L633.6,696l-41.4,46.6l-0.6,0.7l-0.4-0.6l-29.2-41.3L523.5,745l-33.2-42l-43.7,41.9l-33.2-42L368,743.1
	l-33.1-43.6l-38.5,42l-29.7-47.2l-44.8,43.1l-0.6,0.6l-0.4-0.7L195,687.5l-39.7,44.8l-0.5,0.5l-0.3-0.6L127,685.7l-35.7,40.8
	l-0.9,1.1l-0.8-1.2l-30.6-46L34,708l-10.3,11.4l4.1,15c0,5.2,2,9,4,13.1c1.8,3.8,3.8,7.7,4.2,12.7l110.6,368.7v0.1
	c0,0.1,1.8,15,40,30.2c35.3,14,109.9,31,264.3,32.5c296.5-2.9,304.2-62.1,304.2-62.7v-0.2l115.2-384c0.2-4.8,0.3-9.7,0.4-14.6v-0.3
	l7.2-10.9L871.1,703.7z M178.5,1118.2L92,767.4l1.9-0.5l86.5,350.8L178.5,1118.2z M224,1118.7l-63.8-330.4l2-0.4l63.8,330.4
	L224,1118.7z M274.1,1123.7l-45.5-331.5l2-0.3l45.5,331.5L274.1,1123.7z M324.3,1128.6l-22.8-345.7l2-0.1l22.8,345.7L324.3,1128.6z
	 M371.9,1133.7h-2V788h2V1133.7z M427.2,1133.7h-2V788h2V1133.7z M480.5,1138.9h-2V793.2h2V1138.9z M535.9,1133.7h-2V788h2V1133.7z
	 M581.5,1128.7l-2-0.1l22.8-332l2,0.1L581.5,1128.7z M631.5,1123.6l-2-0.3l45.6-340.6l2,0.3L631.5,1123.6z M679.7,1118.3l63.8-330.4
	l2,0.4l-63.8,330.4L679.7,1118.3z M727.3,1123.5l-1.9-0.5l86.5-350.8l1.9,0.5L727.3,1123.5z"/>
<g id="patty_x5F_lines">
	<path class="st1" d="M859,671.5l-35.1,52.6h-0.3l-41.7-43.5l-31.4,47.1L712.1,686l-41.9,48.9L633.6,693L591.8,740l-29.7-41.9
		l-38.5,43.7L490.5,700l-43.7,41.9L413.7,700l-45.4,40.2L335,696.4l-38.3,41.8L267,691.2l-45.3,43.6L195.5,684l-40.2,45.5
		l-27.9-47.2l-36.7,42l-31.4-47.1l-25.1,27.7l-12.6,13.9l4.3,15.7c0.1,5.5,2.2,9.8,4.2,13.9c1.9,3.8,3.6,7.4,4,12.1v0.1l110.6,368.7
		c0.2,1.6,3,16.5,40.4,31.5c35.4,14.2,110.2,31.5,265.8,33c155.6-1.5,230.4-18.8,265.8-33c37.4-15,40.2-29.9,40.4-31.5l115.3-384
		V745c0.2-4.7,0.3-9.6,0.4-14.5l7.5-11.3l-9.4-21.2L859,671.5z M877.9,719l-7.2,10.9v0.3c-0.1,4.9-0.2,9.8-0.4,14.6l-115.2,384v0.2
		c0,0.6-7.7,59.9-304.2,62.7c-154.4-1.5-229-18.5-264.3-32.5c-38.2-15.2-40-30.1-40-30.2v-0.1L36,760.2c-0.4-5-2.3-8.9-4.2-12.7
		c-2-4.1-4-8-4-13.1l-4.1-15L34,708l24.9-27.6l30.6,46l0.8,1.2l0.9-1.1l35.7-40.8l27.6,46.6l0.3,0.6l0.5-0.5l39.7-44.8l25.8,49.9
		l0.4,0.7l0.6-0.6l44.8-43.1l29.7,47.2l38.5-42l33.1,43.6l45.4-40.2l33.2,42l43.7-41.9l33.2,42l38.4-43.7l29.2,41.3l0.4,0.6l0.6-0.7
		l41.4-46.6l36.7,41.9l41.9-48.9l38.5,42l31.5-47.2l39.8,41.5l0.8,0.8h0.5l1.3-0.1h0.5l0.7-1.1l32.9-49.3l12.4,28L877.9,719z"/>
	
		<rect x="135.2" y="761.9" transform="matrix(0.9709 -0.2396 0.2396 0.9709 -221.8256 60.0811)" class="st1" width="2" height="361.3"/>
	
		<rect x="588.9" y="946.9" transform="matrix(0.2394 -0.9709 0.9709 0.2394 -335.0051 1468.162)" class="st1" width="361.3" height="2"/>
	
		<rect x="192.1" y="785" transform="matrix(0.9819 -0.1894 0.1894 0.9819 -177.086 53.8452)" class="st1" width="2" height="336.5"/>
	
		<rect x="544.3" y="952.3" transform="matrix(0.1896 -0.9819 0.9819 0.1896 -358.518 1472.229)" class="st1" width="336.5" height="2"/>
	
		<rect x="251.3" y="790.5" transform="matrix(0.9907 -0.1361 0.1361 0.9907 -127.9755 43.2395)" class="st1" width="2" height="334.6"/>
	
		<rect x="481.5" y="952.1" transform="matrix(0.1328 -0.9911 0.9911 0.1328 -378.1617 1474.0901)" class="st1" width="343.6" height="2"/>
	
		<rect x="313" y="782.5" transform="matrix(0.9978 -6.575146e-02 6.575146e-02 0.9978 -62.16 22.7109)" class="st1" width="2" height="346.4"/>
	
		<rect x="425.4" y="961.6" transform="matrix(6.836010e-02 -0.9977 0.9977 6.836010e-02 -408.9603 1487.2528)" class="st1" width="332.8" height="2"/>
	<rect x="369.9" y="788" class="st1" width="2" height="345.7"/>
	<rect x="533.9" y="788" class="st1" width="2" height="345.7"/>
	<rect x="425.2" y="788" class="st1" width="2" height="345.7"/>
	<rect x="478.5" y="793.2" class="st1" width="2" height="345.7"/>
	<path class="st1" d="M770,323l10.3-26.5c1.4-3.6,0.4-5.5-2.1-6.5l-4.5-1.8l-14.2,36.3l4.5,1.8C766.6,327.3,768.6,326.6,770,323z"/>
	<path class="st1" d="M734,315.3c2.5,1,4.7,0.2,6.1-3.4l9.1-23.5l1.6-4c1.4-3.6,0.4-5.6-2.2-6.6c-0.9-0.3-1.7-0.5-2.4-0.4
		c-1.5,0.2-2.7,1.3-3.7,3.8l-10.7,27.5C730.4,312.3,731.5,314.3,734,315.3z"/>
</g>
<path id="cake" class="st2" d="M422.3,634.8c-88.1,6.8-169.6,28.7-258.9,22.9c-53.8-3.5-93.5-11.3-118.1-30.6
	c-0.2-0.1-0.4-0.2-0.6-0.4c-5.8,25.2-9.4,51.3-10.7,78.1l25.1-27.7l31.4,47.1l36.7-42l27.9,47.2l40.2-45.5l26.2,50.8l45.3-43.6
	l29.7,47.1l38.3-41.8l33.2,43.8l45.4-40.2l33.2,41.9l43.7-41.9l33.1,41.8l38.5-43.7l29.7,41.9l41.8-47.1l36.7,41.9l41.9-48.9
	l38.3,41.8l31.4-47.1l41.7,43.5h0.3l35.1-52.6l11.7,26.5c-1.8-29.4-6.6-58.1-13.9-85.6c-32.1,30.7-86.5,39.6-138.2,42.4
	C618.9,660.3,522.5,627.1,422.3,634.8z"/>
<path id="frosting" class="st3" d="M854.7,429.4c-3.1,2.9-6.3,5.7-9.6,8.4c-16.5-5.3-44.7-10.7-73.2-17.8c-7.7-1.9-17.2-3-27.7-3.4
	c-42.2-1.9-99.5,5.5-110.3,3.4c-6.7-1.3-24.6-8.7-58.3-15.3c-15.7-20.9-27.1-45.2-33-71.6c-51,1.8-119.3-24.3-173.9-29
	c-27.5-2.4-51.6,0.7-68.2,15.6c-1.4,2.2-2.9,4.5-4.3,6.8c-4.3,7-8.6,14.5-13,22.5c2.1,15.1-1.7,29.1-9.8,30.4
	c-9,1.5-19.3-10.2-23.6-28.9c-0.1-0.4-0.2-0.8-0.3-1.3c-3.7-18.8,3.7-35.6,12.4-35c7.5,0.5,13.5,8.2,17.5,19.5c1.1,3,2,6.4,2.8,9.9
	c0.3,1.3,0.5,2.6,0.8,3.8c2.6-7.8,6.1-14.3,10.2-19.8c2.3-3,4.7-5.7,7.4-8.1c28.6-44.1,58.7-65,120.1-56c-2-3.7-2.7-7.3-1.7-10.7
	c2.9-9.7,22.5-11.8,41.6-3.7c14,5.9,24.1,14.6,27,22.8c16.7,0.7,34.7,0.4,51.8-1.8c2.9-25.6,11-49.6,23.1-71.1
	c-2.5,3.7-5.4,7.4-8.7,11.1c-20.7,23.3-52,29.2-58.1,15.8c-6-13.1,2.7-31.5,20.2-51c17.8-19.6,41.5-31,52.5-21.7c0,0,0,0,0,0
	c7.8,6.6,7.4,21.5-1.2,37.9c13.7-21.7,31.8-40.4,52.9-54.9C594,60.3,518.6,18.8,432.1,0c10.4,41.9-16.6,76.2-52.4,96.2
	c-34.9,19.4-79.9,23.1-112.1,46.7c-16.2,11.8-29.2,27.5-37.7,45.7c-13.5,28.8-2.7,27.9-28.3,44.5c-1.2,0.8-2.3,1.5-3.5,2.2
	c-35.7,22-68.3,24.9-91.3,67.3c-1,1.9-1.9,3.7-2.8,5.5c-17.1,34.7-9.8,55.2,3.9,86.1c1.7-0.2,3.4-0.3,5.2-0.4
	c25.4-1.6,47.5,7.1,52.2,18.9c0.7,1.6,1,3.3,0.9,5c-0.2,10.3-11.5,19.2-28.3,24.1c-6.6,1.9-14.1,3.2-22,3.7
	c-28.8,1.8-53.5-9.7-53.1-23.9c0-2,0.5-3.9,1.3-5.8c-72.7,39.4-89.4,166.7-19.2,211.1c0.2,0.1,0.4,0.2,0.6,0.4
	c24.6,19.3,64.3,27.2,118.1,30.6c89.3,5.7,170.8-16.2,258.9-22.9c100.1-7.7,196.6,25.5,296.4,20c51.7-2.8,106-11.8,138.2-42.4
	c17.7-16.9,28.7-40.4,28.8-73.1C885.9,496.3,875.3,458.9,854.7,429.4z M342.6,256.2c-15.2,10.1-36.3,5.6-34.8-3.1
	c1.4-8.4,7.5-14.5,20.2-22.4c12.6-8.3,32.2-9.3,33.4-0.6c0,0,0,0,0,0.1C362.3,238.1,357.4,246.9,342.6,256.2z M518.4,70.1
	c20.5,12.4,27.9,28.4,23,37.5c-5.3,9.6-26.1,5.6-41.9-4c-15.7-9.5-23.1-16.1-27-26.7c0,0,0,0,0,0C468.1,65.7,497.2,56,518.4,70.1z
	 M297.3,172.6c7.8-6.5,16-11.2,23.6-13.8c11.5-12.4,26.8-22.7,49.1-33.7c2.8-1.4,5.6-2.7,8.3-4c2.7-4.6,6-9,9.8-13
	c14.4-15,27.8-21.8,36.9-16.4c0.7,0.4,1.3,0.9,1.8,1.5c13.3-12.4,20.4-29.4,18.1-58.8l3.5,10.5c20.1,54.6,51.8,97.9-31.8,114.9
	c-18,3.7-43.1,4-66.4,8.2c-0.5,0.1-0.9,0.2-1.4,0.3c0,0.4,0.1,0.8,0.1,1.2c0.3,10.6-8.4,25.6-23,37.7c-19,15.9-40.9,21-48.8,11.5
	S278.2,188.5,297.3,172.6z M245.5,182.3c1.6-17,14.1-29.1,20.2-24.9h0c6.8,4.3,8.3,14.6,6.9,27.8c-1.1,13.6-7,25.8-14.6,25.8
	C250.6,210.9,244.1,198.7,245.5,182.3z M178.7,336.9c15.9-15.7,35.1-19.3,41-11.1s-1.8,24.1-14.9,37.2c-13.3,12.9-25,19.2-34.9,16.5
	C159.7,376.6,162.2,352.4,178.7,336.9z M443.8,360.5c14.4,2.5,37.9,16,32.5,26.6c-1.3,2.3-2.9,4.5-5.1,6.4
	c-23.5-1.6-41.5-2.5-54.2-2.4c-11.9-7.3-15.8-14.8-17.3-23.1C397.9,355.7,426.7,352.4,443.8,360.5z M711.4,528.6
	C659.5,598.9,472.2,581,402,562.7c-57.7-15-126-52.9-172.2,16.2c40.6-82.7,98.2-110.6,173.6-99.7c42.3,6.1,162.6,30.1,249.4,15.9
	c19.7-3.2,37.6-8.4,52.5-16.2c20.4-10.6,35.1-26.2,40.9-48.2l2.7,7c-2.1,14.4-5.8,28.5-10.9,42c-2,5.2-4.2,10.4-6.6,15.5
	C725.8,506.9,719.2,518.1,711.4,528.6z"/>
<g id="shadow">
	<path class="st4" d="M368.6,304.1c54.6,4.7,122.8,30.8,173.9,29c-2.1-9.3-3.5-18.9-4.1-28.7c-0.3-4.2-0.4-8.3-0.4-12.6
		c0-7.3,0.4-14.5,1.2-21.5c-17.1,2.2-35.1,2.5-51.8,1.8c0.9,2.7,1.1,5.3,0.4,7.7c-2.9,9.8-22.5,11.8-41.6,3.7
		c-12.3-5.2-21.6-12.6-25.6-19.8c-61.4-9-91.5,11.9-120.1,56C317,304.8,341.1,301.7,368.6,304.1z"/>
	<path class="st4" d="M296.1,326.4c1.4-2.3,2.9-4.6,4.3-6.8c-2.7,2.4-5.1,5.1-7.4,8.1c-4.1,5.5-7.5,12-10.2,19.8
		c0.1,0.5,0.2,1,0.2,1.4C287.5,341,291.8,333.4,296.1,326.4z"/>
	<path class="st4" d="M346.1,161.1c1.6,1.9,2.5,4.4,2.8,7.1c0.5-0.1,0.9-0.2,1.4-0.3c23.3-4.1,48.4-4.5,66.4-8.2
		c83.7-17,51.9-60.3,31.8-114.9L445,34.4c2.3,29.4-4.9,46.4-18.1,58.8c6.7,7.7,1.5,30.9-13.6,46.4c-15.6,16.2-30.9,21.4-38.9,14.3
		c-1.7-1.5-2.8-3.8-3.2-6.5c-1.2-6.9,1.6-16.9,7.2-26.3c-2.7,1.3-5.5,2.6-8.3,4c-22.3,10.9-37.6,21.3-49.1,33.7
		C331.9,155,341.4,155.5,346.1,161.1z"/>
	<path class="st4" d="M746.2,430.7c-5.8,22.1-20.5,37.6-40.9,48.2c-14.9,7.8-32.8,13-52.5,16.2c-86.7,14.2-207-9.8-249.4-15.9
		c-75.5-10.9-133,17-173.6,99.7c46.2-69.1,114.5-31.3,172.2-16.2c70.2,18.3,257.5,36.2,309.4-34.1c7.8-10.5,14.5-21.7,20.1-33.4
		c2.4-5.1,4.6-10.2,6.6-15.5c5.1-13.5,8.8-27.6,10.9-42L746.2,430.7z"/>
</g>
<path id="disc" class="st1" d="M542.5,333.1c5.9,26.4,17.3,50.7,33,71.6c33.7,6.6,51.6,14,58.3,15.3c10.7,2.1,68.1-5.3,110.3-3.4
	c10.5,0.5,20.1,1.5,27.7,3.4c28.5,7.1,56.7,12.5,73.2,17.8c3.3-2.7,6.5-5.5,9.6-8.4c36.8-34.4,59.8-83.3,59.8-137.6
	c0-104-84.3-188.2-188.2-188.2c-39.4,0-76,12.1-106.3,32.9c-21.2,14.5-39.2,33.2-52.9,54.9c-1.6,2.6-3.2,5.2-4.7,7.9
	c-12.1,21.4-20.2,45.5-23.1,71.1c-0.8,7.1-1.2,14.2-1.2,21.5c0,4.2,0.2,8.4,0.4,12.6C539,314.2,540.4,323.8,542.5,333.1z
	 M848.3,330.9l2.5-7.4c1.3-4.1,0.7-5.7-1.8-6.7l-1.2-0.5l2.6-6.5l4.1,1.6c4.5,1.8,6.7,5.5,4.9,11.2l-3.2,10
	c-1.1,3.4-0.8,4.7,2.3,5.9l-2.6,6.5c-3-1.2-4.2-0.5-5.7,2.8l-4.4,9.5c-2.5,5.4-6.7,6.7-11.2,4.9l-4.1-1.6l2.6-6.5l1.2,0.5
	c2.6,1,4.1,0.2,5.9-3.7l3.2-7.1c1.2-2.6,3.2-5.1,7.2-4.6C847.2,336.8,847.4,333.6,848.3,330.9z M835.9,303.5c7.8,3,10,9.2,6.8,17.4
	l-0.6,1.6l-7.6-3l0.8-2.1c1.4-3.6,0.5-5.6-2-6.6s-4.5-0.2-6,3.5s-0.9,7.1,2.5,13.7c4.4,8.5,4.8,13.5,2.6,19.3
	c-3.2,8.1-9.1,11.2-16.9,8.1s-10.1-9.3-6.9-17.4l1.2-3.1l7.6,3l-1.4,3.6c-1.4,3.6-0.3,5.6,2.2,6.6s4.7,0.3,6.1-3.3s0.9-7.1-2.5-13.7
	c-4.4-8.5-4.8-13.5-2.6-19.3C822.3,303.5,828.1,300.5,835.9,303.5z M820,298l-2.8,7.3l-13.8-5.4l-5.5,14.2l11,4.3l-2.8,7.3l-11-4.3
	l-5.8,14.9l13.8,5.4l-2.8,7.3l-21.8-8.5l19.9-50.9L820,298z M781.2,282.8c8,3.1,10.2,9.1,7,17.2l-10,25.7c-3.2,8.1-8.8,11-16.8,7.9
	l-9.4-3.7l-3.2-1.3l3.9-9.9l16-40.9L781.2,282.8z M743.4,269.6c2.4-0.5,5.1-0.2,8.1,0.9c7.8,3.1,10.3,9.4,7.2,17.5l-6.6,17l-3.7,9.4
	c-3.2,8.1-9.3,11.1-17.1,8.1s-10.3-9.4-7.1-17.5l10.3-26.5C736.3,273.5,739.4,270.5,743.4,269.6z M723.2,259.5
	c7.8,3.1,10.1,9.3,6.9,17.4l-1.9,4.9l-7.6-3l2.1-5.5c1.4-3.6,0.4-5.6-2.2-6.6s-4.7-0.2-6.1,3.4l-10.7,27.5c-1.4,3.6-0.3,5.6,2.2,6.6
	s4.7,0.3,6.1-3.3l2.8-7.3l7.6,3l-2.6,6.8c-3.2,8.1-9.1,11.2-16.9,8.1c-6.1-2.4-8.8-6.8-8.2-12.4c0.2-1.6,0.6-3.2,1.3-5l10.3-26.5
	c0.4-0.9,0.8-1.8,1.2-2.6C710.8,258.9,716.2,256.8,723.2,259.5z M695.2,253.6c2.4-2.1,5.3-2.3,8.5-1.1l4.1,1.6l-2.2,5.7l-0.3,0.9
	l-1.2-0.5c-2.6-1-4.1-0.2-5.9,3.7l-1.2,2.5l-2.1,4.6c-1.2,2.6-3.2,5.1-7.2,4.6c3.4,2.4,3.1,5.5,2.2,8.3l-2.5,7.4
	c-1.3,4.1-0.7,5.7,1.8,6.7l1.2,0.5l-2.5,6.6l-4.1-1.6c-4.5-1.8-6.7-5.5-4.9-11.2l3.2-10c0.7-2.3,0.8-3.6-0.1-4.6
	c-0.5-0.5-1.2-0.9-2.2-1.3l2.6-6.5c3,1.2,4.2,0.5,5.7-2.8l4.4-9.5C693.2,255.8,694.1,254.5,695.2,253.6z M688.1,246.5l-2.7,7
	l-0.1,0.3l-0.6-0.2l-13.3-5.2l-4.2,10.6l-1.4,3.5l11,4.3l-2.8,7.3l-11-4.3l-5.8,14.9l11.4,4.5l2.4,0.9l-2.8,7.3l-5.8-2.3l-16-6.3
	l8.8-22.6l11-28.2L688.1,246.5z M643.2,229l-8.5,21.8l9.1,3.5l8.5-21.8l8.1,3.2l-15.3,39.2l-4.6,11.7l-4.2-1.6l-3.9-1.5l8.5-21.8
	l-9.1-3.5l-8.5,21.8l-8-3.1l19.8-50.9L643.2,229z M591.5,254.1c0.1-0.3,0.2-0.5,0.3-0.8l1.2-3.1l2.7,1.1l4.9,1.9l-1.4,3.6
	c-1.4,3.6-0.3,5.6,2.2,6.6s4.7,0.3,6.1-3.3s0.9-7.1-2.5-13.7c-0.4-0.8-0.8-1.5-1.1-2.3c-3.3-7.1-3.5-11.8-1.5-17.1
	c2.7-7,7.4-10.2,13.5-9.1c0.1,0,0.1,0,0.2,0c1,0.2,1.9,0.5,3,0.9c7.8,3,10,9.2,6.8,17.4l-0.6,1.6l-7.6-3l0.8-2.1
	c1.4-3.6,0.5-5.6-2-6.6c-0.1-0.1-0.3-0.1-0.4-0.1c-0.6-0.2-1.2-0.3-1.8-0.2c-1.5,0.2-2.8,1.3-3.8,3.8c-0.7,1.9-1,3.8-0.5,6
	c0.4,2.1,1.4,4.5,3,7.7c1.4,2.6,2.3,4.9,3,7c1.4,4.7,1.2,8.3-0.4,12.3c-0.3,0.7-0.5,1.3-0.8,1.9c-3.3,6.7-8.9,9.1-16.1,6.3
	C591.1,267.9,588.8,261.9,591.5,254.1z"/>
<g id="_x7B_CODES_x7D_">
	<path class="st5" d="M694.8,271l2.1-4.6l1.2-2.5c1.8-3.9,3.3-4.7,5.9-3.7l1.2,0.5l0.3-0.9l2.2-5.7l-4.1-1.6c-3.1-1.2-6.1-1-8.5,1.1
		c-1,0.9-2,2.2-2.8,3.8l-4.4,9.5c-1.5,3.3-2.7,4-5.7,2.8l-2.6,6.5c1,0.4,1.7,0.8,2.2,1.3c0.9,1,0.9,2.3,0.1,4.6l-3.2,10
		c-1.8,5.7,0.4,9.5,4.9,11.2l4.1,1.6l2.5-6.6l-1.2-0.5c-2.5-1-3.2-2.6-1.8-6.7l2.5-7.4c0.9-2.7,1.1-5.9-2.2-8.3
		C691.7,276.1,693.6,273.6,694.8,271z"/>
	<path class="st5" d="M712,300.9c-1.4,3.6-3.5,4.3-6.1,3.3s-3.6-2.9-2.2-6.6l10.7-27.5c1.4-3.6,3.5-4.4,6.1-3.4s3.6,3,2.2,6.6
		l-2.1,5.5l7.6,3l1.9-4.9c3.2-8.1,0.9-14.4-6.9-17.4c-7-2.7-12.4-0.6-15.7,5.6c-0.4,0.8-0.8,1.6-1.2,2.6L696,294.1
		c-0.7,1.8-1.1,3.4-1.3,5c-0.6,5.7,2.1,10,8.2,12.4c7.9,3.1,13.7,0,16.9-8.1l2.6-6.8l-7.6-3L712,300.9z"/>
	<path class="st5" d="M758.6,288.1c3.2-8.1,0.7-14.5-7.2-17.5c-3-1.2-5.7-1.4-8.1-0.9c-4,0.9-7.1,3.9-9,9L724,305
		c-3.2,8.1-0.7,14.5,7.1,17.5s14,0.1,17.1-8.1l3.7-9.4L758.6,288.1z M740.1,311.9c-1.4,3.6-3.6,4.4-6.1,3.4s-3.6-3-2.2-6.6
		l10.7-27.5c0.9-2.4,2.2-3.5,3.7-3.8c0.8-0.1,1.6,0,2.4,0.4c2.5,1,3.6,3,2.2,6.6l-1.6,4L740.1,311.9z"/>
	<path class="st5" d="M781.2,282.8l-12.6-4.9l-16,40.9l-3.9,9.9l3.2,1.3l9.4,3.7c8,3.1,13.6,0.2,16.8-7.9l10-25.7
		C791.4,291.9,789.2,285.9,781.2,282.8z M780.3,296.5L770,323c-1.4,3.6-3.5,4.3-6,3.3l-4.5-1.8l14.2-36.3l4.5,1.8
		C780.7,291,781.8,292.9,780.3,296.5z"/>
	<polygon class="st5" points="806,325.6 808.8,318.3 797.8,314 803.4,299.8 817.2,305.2 820,298 798.2,289.4 778.3,340.3 
		800.1,348.8 803,341.6 789.2,336.2 795,321.3 	"/>
	<path class="st5" d="M829.8,328c-3.5-6.6-4-10.1-2.5-13.7s3.5-4.4,6-3.5s3.4,2.9,2,6.6l-0.8,2.1l7.6,3l0.6-1.6
		c3.2-8.1,1-14.4-6.8-17.4c-7.8-3-13.6,0.1-16.8,8.2c-2.3,5.8-1.8,10.8,2.6,19.3c3.4,6.6,3.9,10.1,2.5,13.7s-3.5,4.3-6.1,3.3
		s-3.6-2.9-2.2-6.6l1.4-3.6l-7.6-3l-1.2,3.1c-3.2,8.1-0.9,14.4,6.9,17.4s13.7,0,16.9-8.1C834.7,341.5,834.2,336.5,829.8,328z"/>
	<path class="st5" d="M859.4,322.6c1.8-5.7-0.4-9.5-4.9-11.2l-4.1-1.6l-2.6,6.5l1.2,0.5c2.5,1,3.2,2.6,1.8,6.7l-2.5,7.4
		c-0.9,2.8-1.1,5.9,2.2,8.3c-4.1-0.5-6.1,2-7.2,4.6l-3.2,7.1c-1.8,3.9-3.3,4.7-5.9,3.7l-1.2-0.5l-2.6,6.5l4.1,1.6
		c4.5,1.8,8.7,0.5,11.2-4.9l4.4-9.5c1.5-3.2,2.7-4,5.7-2.8l2.6-6.5c-3.1-1.2-3.4-2.5-2.3-5.9L859.4,322.6z"/>
</g>
<g id="SHE">
	<path class="st6" d="M616,250.3c-0.6-2.1-1.6-4.4-3-7c-1.6-3.2-2.6-5.6-3-7.7c-0.5-2.3-0.2-4.1,0.5-6c1-2.5,2.2-3.7,3.8-3.8
		c0.6-0.1,1.2,0,1.8,0.2c0.1,0,0.3,0.1,0.4,0.1c2.5,1,3.4,2.9,2,6.6l-0.8,2.1l7.6,3l0.6-1.6c3.2-8.1,1-14.4-6.8-17.4
		c-1-0.4-2-0.7-3-0.9c-0.1,0-0.1,0-0.2,0c-6.2-1.1-10.9,2.1-13.5,9.1c-2.1,5.3-1.9,9.9,1.5,17.1c0.3,0.7,0.7,1.5,1.1,2.3
		c3.5,6.6,3.9,10.1,2.5,13.7s-3.5,4.3-6.1,3.3s-3.6-2.9-2.2-6.6l1.4-3.6l-4.9-1.9l-2.7-1.1l-1.2,3.1c-0.1,0.3-0.2,0.5-0.3,0.8
		c-2.8,7.8-0.4,13.7,7.2,16.7c7.2,2.8,12.7,0.4,16.1-6.3c0.3-0.6,0.6-1.2,0.8-1.9C617.2,258.7,617.5,255,616,250.3z"/>
	<polygon class="st6" points="652.3,232.5 643.8,254.3 634.7,250.8 643.2,229 635.2,225.9 615.4,276.7 623.4,279.8 631.9,258 
		641,261.6 632.5,283.4 636.4,284.9 640.6,286.6 645.2,274.9 660.5,235.7 	"/>
	<polygon class="st6" points="666.3,238 655.3,266.2 646.5,288.8 662.5,295.1 668.3,297.3 671.1,290.1 668.7,289.1 657.3,284.7 
		663.1,269.8 674.1,274.1 676.9,266.8 665.9,262.5 667.3,259 671.5,248.4 684.7,253.6 685.3,253.8 685.4,253.5 688.1,246.5 	"/>
</g>
<g id="sprinkles">
	<path class="st2" d="M178.7,336.9c-16.5,15.5-19.1,39.7-8.8,42.5c9.9,2.8,21.6-3.5,34.9-16.5c13.1-13,20.8-29,14.9-37.2
		S194.6,321.2,178.7,336.9z"/>
	<path class="st2" d="M258,210.9c7.6,0,13.5-12.3,14.6-25.8c1.3-13.2-0.2-23.5-6.9-27.8h0c-6.1-4.1-18.6,7.9-20.2,24.9
		C244.1,198.7,250.6,210.9,258,210.9z"/>
	<path class="st2" d="M361.4,230c-1.3-8.7-20.8-7.7-33.4,0.6c-12.6,7.9-18.8,14-20.2,22.4c-1.5,8.8,19.6,13.2,34.8,3.1
		C357.4,246.9,362.3,238.1,361.4,230C361.4,230,361.4,230,361.4,230z"/>
	<path class="st2" d="M413.3,139.6c15.1-15.5,20.3-38.7,13.6-46.4c-0.5-0.6-1.1-1.1-1.8-1.5c-9.1-5.4-22.5,1.5-36.9,16.4
		c-3.8,4-7.2,8.4-9.8,13c-5.6,9.5-8.4,19.5-7.2,26.3c0.5,2.7,1.5,4.9,3.2,6.5C382.4,161,397.7,155.8,413.3,139.6z"/>
	<path class="st2" d="M443.8,360.5c-17.1-8-45.9-4.8-44.1,7.5c1.5,8.3,5.5,15.8,17.3,23.1c12.6-0.1,30.6,0.8,54.2,2.4
		c2.2-1.9,3.8-4.1,5.1-6.4C481.7,376.4,458.2,363,443.8,360.5z"/>
	<path class="st2" d="M568.2,153.5C568.2,153.5,568.2,153.5,568.2,153.5c-11-9.3-34.7,2.1-52.5,21.7c-17.6,19.5-26.3,37.9-20.2,51
		c6.1,13.3,37.4,7.5,58.1-15.8c3.3-3.7,6.2-7.4,8.7-11.1c1.5-2.7,3.1-5.3,4.7-7.9C575.6,175,575.9,160.1,568.2,153.5z"/>
	<path class="st2" d="M349,169.4c0-0.4,0-0.8-0.1-1.2c-0.3-2.7-1.2-5.1-2.8-7.1c-4.7-5.6-14.2-6.1-25.2-2.4
		c-7.6,2.6-15.8,7.3-23.6,13.8c-19,15.9-28,36.5-20.1,46S307,223,326,207.1C340.6,194.9,349.3,180,349,169.4z"/>
	<path class="st2" d="M282.9,347.5c-0.2-1.3-0.5-2.6-0.8-3.8c-0.8-3.5-1.7-6.8-2.8-9.9c-4-11.3-10-19.1-17.5-19.5
		c-8.7-0.6-16.1,16.2-12.4,35c0.1,0.4,0.2,0.8,0.3,1.3c4.3,18.7,14.5,30.4,23.6,28.9c8.1-1.4,11.9-15.3,9.8-30.4
		C283,348.5,283,348,282.9,347.5z"/>
	<path class="st2" d="M460.4,249.3c-19-8.1-38.7-6-41.6,3.7c-1,3.3-0.3,7,1.7,10.7c4,7.2,13.3,14.6,25.6,19.8
		c19,8.1,38.6,6,41.6-3.7c0.7-2.4,0.6-5.1-0.4-7.7C484.5,263.9,474.4,255.3,460.4,249.3z"/>
	<path class="st2" d="M472.5,76.9c3.9,10.6,11.3,17.2,27,26.7c15.9,9.6,36.7,13.5,41.9,4c4.9-9.1-2.5-25.1-23-37.5
		C497.2,56,468.1,65.7,472.5,76.9C472.5,76.9,472.5,76.9,472.5,76.9z"/>
	<path class="st2" d="M113,393.8c-1.8,0.1-3.5,0.3-5.2,0.4c-21.9,2.3-39,10.7-43.7,21.5c-0.8,1.9-1.3,3.8-1.3,5.8
		c-0.3,14.2,24.3,25.7,53.1,23.9c8-0.5,15.4-1.8,22-3.7c16.8-4.8,28.1-13.7,28.3-24.1c0-1.7-0.3-3.4-0.9-5
		C160.4,400.9,138.3,392.2,113,393.8z"/>
</g>
</svg>
