<?xml version="1.0" encoding="utf-8"?>
<!-- Generator: Adobe Illustrator 28.1.0, SVG Export Plug-In . SVG Version: 6.00 Build 0)  -->
<svg version="1.1" id="cupcake" xmlns="http://www.w3.org/2000/svg" xmlns:xlink="http://www.w3.org/1999/xlink" x="0px" y="0px"
	 viewBox="0 0 99.4 132.5" style="enable-background:new 0 0 99.4 132.5;" xml:space="preserve">
<style type="text/css">
	.st0{fill:#995ECC;}
	.st1{fill:#632E55;}
	.st2{fill:#724431;}
	.st3{fill:#AA6F52;}
	.st4{fill:#84533D;}
	.st5{fill:#F28767;}
	.st6{fill:#FFA300;}
</style>
<g id="patty">
	<path class="st0" d="M43.9,101.7c-0.4-3.2-0.9-6.3-1.3-9.5c-1,3.4-3.6,0.9-4.6-1.3c0-0.1-0.1-0.2-0.2-0.2h-0.1
		c-0.2-0.1-0.3-0.1-0.5,0c0.1-0.1,0.3-0.1,0.5,0h0.1c0.1,0.1,0.2,0.1,0.2,0.2l0.1,0.2c0.5,3.5,1.1,7,1.8,10.5
		c0.7,4,1.6,7.9,2.4,11.9h0.1c1.4,6.2,2.4,12.6,3.8,18.9c0.4,0,0.9,0,1.3,0c-0.6-5.9-1-11.9-1.8-17.8
		C45.1,110.4,44.5,106.1,43.9,101.7z"/>
	<path class="st0" d="M35.4,131.9C35.4,131.9,35.4,131.9,35.4,131.9c-0.4-0.1-0.8-0.1-1.1-0.1C34.7,131.8,35,131.9,35.4,131.9z"/>
	<path class="st0" d="M26.7,100.1c-1.2-3.1-2.4-6.2-3.6-9.3c0-0.1,0-0.2,0-0.3c0.1,0.1,0.2,0.2,0.3,0.2c-0.8-0.8-1.2-1.9-1.1-3.1
		c0.1-0.3-0.1-0.6-0.5-0.7c-0.3-0.1-0.6,0.1-0.7,0.5c-0.1,0.6-0.7,2.2-1.4,2.6c0,0,0.1,0,0.1-0.1c0.9,3.1,1.9,6.2,2.9,9.3
		c1.7,5.1,3.6,10.1,5.8,15.1h0c2.4,5.8,4.6,11.8,7,17.7c0.7,0.1,1.5,0.2,2.2,0.2C33.9,121.5,30.6,110.7,26.7,100.1z"/>
	<path class="st0" d="M38.8,101.6c-0.7-3.5-1.3-7.1-1.8-10.7c-0.4,0.7-0.7,1.5-1.2,2.2c-1.3,1.9-2.6-0.4-2.9-1.2
		c-0.3-0.6-0.4-1.3-0.5-2c0-0.2-0.2-0.3-0.3-0.4c0.1,0.1,0.2,0.2,0.3,0.4c0.1,0.7,0.3,1.4,0.5,2c0.1,0.3,0.3,0.6,0.5,0.9
		c0.7,2.9,1.5,5.7,2.4,8.5c0,0.1,0,0.1,0.1,0.2c1.2,3.9,2.1,7.7,3.2,11.6l0,0c1.7,6.4,3.4,12.7,5.2,19.1c0.3,0,0.6,0,0.9,0
		c-1.4-6.2-2.4-12.5-3.8-18.7C40.4,109.7,39.6,105.7,38.8,101.6z"/>
	<path class="st0" d="M21.3,98.9c-1-2.9-1.9-5.8-2.7-8.7c0-0.1,0-0.1,0-0.2c-0.1-0.1-0.2-0.2-0.3-0.3c-0.5-0.8-0.8-1.8-0.8-2.7
		c0.2-0.2,0.2-0.5,0-0.7c0,0,0,0,0,0c0-0.7-1.1-0.6-1.1,0.1c0,0.1,0,0.2,0,0.2c-0.4,0.4-0.6,0.9-0.9,1.3c1.2,3.5,2.5,7,3.9,10.5
		c4.3,11.1,9.1,22,13.1,33.2c0.5,0.1,1.1,0.2,1.6,0.3c-2.5-6-4.7-12.1-7.2-18.1C24.9,108.9,23,103.9,21.3,98.9z"/>
	<path class="st0" d="M37.8,112.7c-1-3.8-2.2-7.6-3.3-11.4c-1.1-3.8-2.2-7.7-2.8-11.6c-0.1,0-0.2,0.1-0.2,0.2
		c-0.5,1-1.2,2.2-2.4,2.2c1,2.9,2,5.9,2.9,8.9c1.4,4.6,2.7,9.3,4.1,13.9c1.1,3.9,2.3,7.8,3.5,11.6l0-0.1c0.7,2,1.4,3.8,2.1,5.8h-1.2
		c-0.7-1.8-1.4-3.6-2-5.4c-1.3-3.8-2.4-7.7-3.5-11.6c-1.4-4.8-2.8-9.6-4.2-14.4c-0.9-2.9-1.8-5.9-2.9-8.8c0-0.1,0-0.2,0-0.4
		c0.1,0.1,0.2,0.2,0.4,0.3c-0.9-0.5-1.1-2-1.2-2.7c0-0.1-0.1-0.3-0.2-0.4c0.1-0.7-0.9-0.8-1.1-0.2c-0.2,0.8-0.6,2.2-1.4,2.4
		c1.2,3,2.4,6.1,3.6,9.2c3.9,10.5,7.2,21.2,10.8,31.9l-0.9-0.1c1.5,0.1,3,0.2,4.4,0.2c0.3,0,0.6,0,1,0c-0.7-2.7-1.3-5.3-2.1-8
		C39.9,120.5,38.8,116.6,37.8,112.7z"/>
	<path class="st0" d="M20.8,110.8c-2.1-4.8-4.2-9.7-6.4-14.5c-1.5-3.3-3-6.6-4.7-9.9c0,0,0.1,0,0.1,0c-0.1,0-0.3-0.1-0.4-0.2
		c-0.5-0.8-0.7-1.7-0.6-2.6L9,83.6c0.3-0.4-0.1-0.9-0.5-0.9H8.2c-0.2,0-0.4,0.2-0.5,0.5c-0.6,0.7-1.7,1.6-2.3,0.9s-0.6-2-0.6-2.9
		c0-0.5-0.7-0.6-0.9-0.2c-0.1,0-0.2,0.1-0.2,0.2c-0.1,0.2-0.3,0.6-0.6,0.9c0,0,0,0,0,0C4,84.6,5,87.1,6,89.6
		c2.5,6.3,5.2,12.4,8,18.6c3.2,7,6.8,13.9,10.2,20.7c0.5,0.3,1,0.5,1.5,0.7c0.2,0.1,0.3,0.1,0.5,0.2c-3.1-8-6.9-15.8-10.5-23.6
		c-1.8-3.8-3.6-7.7-5.2-11.6c-0.1-0.3-0.3-0.7-0.4-1c-1.3-3.3-2.8-6.5-4.7-9.5c0-0.1-0.1-0.1-0.1-0.2l0.2,0.2
		c0.3,0.3,0.9,0.4,1.2,0.1c1.7,3,3.2,6,4.4,9.3c0.2,0.4,0.4,0.9,0.6,1.3c1.5,3.7,3.2,7.4,4.9,11c3.8,8.1,7.7,16.1,10.9,24.5
		c0.6,0.2,1.2,0.4,1.8,0.5C26.6,124,23.7,117.5,20.8,110.8z"/>
	<path class="st0" d="M27.5,130.3C27.4,130.3,27.4,130.3,27.5,130.3C27.4,130.3,27.4,130.3,27.5,130.3
		C27.4,130.3,27.4,130.3,27.5,130.3z"/>
	<path class="st0" d="M31.4,131.3c0.4,0.1,0.8,0.2,1.1,0.2C32.1,131.4,31.7,131.3,31.4,131.3C31.4,131.3,31.4,131.3,31.4,131.3z"/>
	<path class="st0" d="M3.6,86.3c-0.5-1.3-1-2.6-1.5-3.9c0.4,0.2,0.7,0,0.9-0.3c-0.3,0.3-0.6,0.4-0.9,0.2c-0.2-0.2-0.4-0.4-0.5-0.6
		c-0.1-0.4-0.2-0.8-0.4-1.2c0-0.1-0.1-0.2-0.2-0.2c-0.2-0.3-0.5-0.2-0.8,0c-0.1,0.1-0.2,0.3-0.2,0.6c0.1,0.5,0.3,0.9,0.5,1.4
		c2.2,7.5,13.8,32,16,37.3c1.4,3.3,3.1,6.2,5.8,8.2c-3.3-6.7-6.7-13.4-9.8-20.2C9.4,100.6,6.4,93.5,3.6,86.3z"/>
	<path class="st0" d="M49.9,114.3c-0.1-3.8-0.1-7.4,0.1-11.3c0-0.5,0.1-1,0.1-1.4c0.2-3.4,0.3-6.8-0.3-10.1c0,0,0,0,0,0
		c-0.6,0.8-0.9,1.7-1.4,2.5c-1.9,3.1-4.2-0.6-4.7-2.4c-0.1-0.3-0.4-0.4-0.6-0.3c0.2-0.1,0.4,0,0.5,0.1c0.4,3.4,0.9,6.8,1.4,10.3
		c0.6,4.3,1.2,8.6,1.8,12.8h0c0.8,5.9,1.2,11.9,1.8,17.9h-0.8c1,0,2,0,2.9,0l-1,0C49.7,126.4,50,120.3,49.9,114.3z"/>
	<path class="st0" d="M66.4,131.7l-0.9,0.1C65.8,131.8,66.1,131.7,66.4,131.7z"/>
	<path class="st0" d="M65.3,131.8l0.1,0C65.4,131.8,65.4,131.8,65.3,131.8C65.4,131.8,65.4,131.8,65.3,131.8z"/>
	<path class="st0" d="M66.5,131.6C66.5,131.6,66.5,131.6,66.5,131.6c-0.1,0-0.1,0-0.2,0L66.5,131.6z"/>
	<path class="st0" d="M80.7,97.6c0.6-1,1.1-2.1,1.5-3.2c1-2.4,1.9-4.8,2.5-7.3c-0.2,0.1-0.4,0.2-0.5,0.2c-1.2,0.4-2.4,0-3.3-0.9
		c-0.4-0.4-1.1,0.3-0.8,0.7c0.2,0.2,0.3,0.5,0.3,0.6c0.1,0.1,0.2,0.3,0.1,0.4v0c-0.4,1.7-1.4,4.5-2.6,8c-3.9,10.5-10.7,27-14.2,35.8
		c0.5-0.1,1-0.1,1.4-0.2c2.7-7.4,5.9-14.7,9.5-21.8C76.9,105.9,78.7,101.7,80.7,97.6z"/>
	<path class="st0" d="M99,78C99,78,99,78,99,78C99,78,99,78,99,78C99,78,98.9,78,99,78C98.9,78,98.9,78,99,78L99,78
		c-0.3-0.1-0.5,0-0.6,0.2c-0.4,0.6-0.9,1.1-1.4,1.5c-0.3,0.4-1,0.5-1.4,0.2c-0.1,0-0.1-0.1-0.2-0.2c-0.1-0.2-0.2-0.3-0.3-0.4
		L95,79.1c-0.1-0.1-0.1-0.2-0.3-0.2h-0.1c-0.2,0-0.5,0.2-0.5,0.4v0.2c0,0.1,0,0.2,0.1,0.3c0.1,0.2,0.3,0.4,0.4,0.5
		c0.1,0.1,0.2,0.2,0.3,0.4c0.3,1.7-0.1,3.5-0.7,5.2c-0.7,2-1.8,4-2.6,5.8v0c-1.9,4.2-11.7,24.3-17.7,37.6c-0.5,0.3-1,0.5-1.5,0.8
		c5.7-13,15.8-33.5,17.7-37.7c0.6-1.4,1.5-3,2.2-4.7c0.7-1.7,1.4-3.4,1.5-5.1c0,0-0.1,0-0.1,0.1c-0.8,0.3-1.7,0-2.2-0.8
		c-0.3-0.5-1.1,0-0.9,0.5c0,0.1,0.1,0.2,0.1,0.3c0.1,0,0.2,0,0.3,0c0.3,0.1,0.4,0.4,0.3,0.7v0c-0.8,1.8-2,4.5-3.6,7.8
		C82.5,102.5,74,120.4,69.7,131l-1.3,0.3c4.1-10.1,12.3-27.5,17.7-39c1.4-3,2.6-5.6,3.5-7.5c-1,0.4-2.5,0.2-3.2-0.6
		c-0.2-0.2-0.6-0.2-0.8,0c-0.1,0.1-0.1,0.1-0.1,0.2c-0.3,0.1-0.4,0.5-0.2,0.8c0.1,0.1,0.1,0.2,0.2,0.2c0.1,0,0.1,0.1,0.1,0.1
		c0,0,0.1,0,0.1,0c0.3,0,0.5,0.3,0.4,0.6c-0.4,2.7-1.3,5.2-2.4,7.6c-0.5,1.2-1.1,2.4-1.6,3.5c-2,4.1-3.8,8.3-5.8,12.4h0
		c-3.7,7.2-6.9,14.5-9.7,22.1c8.9-1.4,11.2-4.8,14.5-11.9c7.5-16,13.8-30.8,18.2-41c0-0.1,0-0.2,0-0.2c0,0,0,0,0-0.1
		C99.4,78.1,99.2,78,99,78z"/>
	<path class="st0" d="M62.6,132.1l0.2,0C62.7,132.1,62.6,132.1,62.6,132.1C62.6,132.1,62.6,132.1,62.6,132.1z"/>
	<path class="st0" d="M58.3,115.4c1.3-5,2.5-10.1,3.8-15.1c0.7-3,1.4-6,2.1-9c-0.1,0.2-0.2,0.5-0.3,0.7c-1.2,3-4.5,1.3-5.1-1.1
		c0-0.3-0.3-0.5-0.6-0.5c-0.2,0-0.4,0.2-0.5,0.5c0,0.2-0.1,0.4-0.1,0.5l0.1,0.1c0-0.2,0.1-0.3,0.1-0.5c0-0.2,0.1-0.3,0.3-0.4
		c0.1-0.1,0.3-0.1,0.5,0c0,0,0.1,0,0.1,0.1c0.1,0.1,0.1,0.2,0.1,0.4c-0.7,3.2-1.1,6.5-1.5,9.8c-0.6,4.9-1,9.8-1.7,14.6
		c-0.8,5.6-1.3,11.3-1.9,16.9c0.7,0,1.3,0,2,0h-1C55.8,126.7,56.9,121.1,58.3,115.4z"/>
	<path class="st0" d="M56.2,101.1c0.4-3.2,0.8-6.3,1.4-9.4c-1.2,3.6-4.7,2.8-6.7-0.2c0,0-0.1,0-0.1,0c0.5,3.3,0.6,6.6,0.3,9.9
		c0,0,0,0.1,0,0.1c-0.2,4.3-0.3,8.5-0.2,12.7c0.1,6.1-0.2,12.2-0.2,18.2c0.6,0,1.3,0,1.9,0c0.6-5.7,1.1-11.4,1.9-17.1
		C55.2,110.6,55.6,105.8,56.2,101.1z"/>
	<path class="st0" d="M14.7,88.4C14.7,88.4,14.7,88.4,14.7,88.4c-0.6,0-1.1-0.9-1.3-1.4c-0.2-0.6-0.3-1.2-0.4-1.8v-0.1
		c0,0,0,0,0-0.1c-0.1-0.2-0.3-0.4-0.5-0.3c-0.2,0-0.3,0.1-0.4,0.2c-0.3,0.3-0.8,0.9-1.3,1.3c1.8,3.5,3.5,7.1,5.1,10.8
		c2,4.5,3.9,8.9,5.9,13.4l0,0c3,6.9,6.1,13.6,8.8,20.6c0.3,0.1,0.6,0.1,0.8,0.2c-4.1-11.2-8.9-22.2-13.2-33.4
		C17,94.7,15.8,91.6,14.7,88.4z"/>
	<path class="st0" d="M74.5,89c-1.5,1.4-3.6,2.3-3.7-0.4c0-0.6-1-0.6-1.1,0c-0.3,2.1-2.7,4-3.9,1.3c-0.1-0.1-0.1-0.2-0.2-0.2
		c-0.7,3.5-1.5,7-2.4,10.4c-1.3,5.2-2.6,10.3-3.9,15.5c-1.4,5.6-2.5,11.2-3.7,16.8c0.6,0,1.2,0,1.7,0c0.4-1.7,0.8-3.4,1.2-5.1
		c1.1-3.9,2.3-7.8,3.5-11.6c1.7-5.3,3.4-10.8,4.7-16.2c0.7-2.9,1.3-5.8,1.8-8.7c0.6-0.6,1-1.3,1.1-2.1v-0.1c0.2,0.1,0.3,0.3,0.2,0.5
		c-0.5,3.4-1.2,6.7-2,10.1c-1.3,5.4-3,10.7-4.6,15.9c-1.5,4.7-3.1,9.4-4.2,14.2l0,0.1c-0.2,1-0.5,2-0.7,2.9c0.5,0,1,0,1.4-0.1
		c3.5-11.4,7.5-22.7,11.4-33.9C72.4,95.2,73.5,92.1,74.5,89z"/>
	<path class="st0" d="M79.5,88.5C79.5,88.5,79.5,88.5,79.5,88.5c-0.9,0-2.1-0.4-2.6-1.4c-0.1-0.3-0.5-0.4-0.7-0.3
		C76.1,86.9,76,87,76,87c-0.1,0.1-0.2,0.2-0.2,0.3c0,0,0,0,0,0c0.2,0.1,0.3,0.4,0.2,0.6h0c-1.1,3.4-2.2,6.7-3.3,10
		c-3.9,11.4-8,22.7-11.6,34.2c0.5,0,1-0.1,1.4-0.1c3.3-9.1,10.2-24.9,14.2-35.4C78,93.3,79,90.4,79.5,88.5z"/>
</g>
<g id="patty_x5F_lines">
	<path class="st1" d="M42.3,113.5L42.3,113.5c-0.9-3.9-1.8-7.9-2.5-11.9c-0.7-3.5-1.3-7-1.8-10.5L38,90.9c0-0.1-0.1-0.2-0.2-0.2
		h-0.1c-0.1-0.1-0.3-0.1-0.5,0c-0.1,0-0.1,0.1-0.1,0.1c0,0,0,0,0,0c0,0,0,0.1-0.1,0.1c0,0,0,0,0,0c0.5,3.6,1.1,7.1,1.8,10.7
		c0.8,4,1.6,8,2.5,12c1.3,6.2,2.4,12.5,3.8,18.7c0,0,0,0,0,0h1.1c0,0,0,0,0,0C44.8,126.2,43.7,119.8,42.3,113.5z"/>
	<path class="st1" d="M39,113.3L39,113.3c-1-3.9-2-7.8-3.2-11.7c0-0.1,0-0.1-0.1-0.2c-0.9-2.8-1.7-5.6-2.4-8.5
		c-0.2-0.3-0.4-0.6-0.5-0.9c-0.3-0.6-0.4-1.3-0.5-2c0-0.2-0.1-0.3-0.3-0.4c-0.1-0.1-0.2-0.1-0.3-0.1c0,0-0.1,0-0.1,0c0,0,0,0,0,0.1
		c0.6,3.9,1.7,7.8,2.8,11.6c1.1,3.8,2.3,7.6,3.3,11.4c1,3.9,2.2,7.8,3.3,11.7c0.8,2.6,1.4,5.3,2.1,8c0,0,0,0,0,0h1c0,0,0,0,0,0
		C42.4,126,40.7,119.7,39,113.3z"/>
	<path class="st1" d="M39.5,126.5c-1.3-3.8-2.4-7.7-3.5-11.6c-1.3-4.6-2.7-9.3-4.1-13.9C31,98,30,95.1,29,92.1c0,0,0,0,0-0.1
		c-0.1,0-0.2,0-0.3,0c-0.1,0-0.3,0-0.4-0.1c-0.1-0.1-0.3-0.1-0.4-0.3c0,0.1,0,0.2,0,0.4c1,2.9,2,5.8,2.9,8.8
		c1.5,4.8,2.8,9.6,4.2,14.4c1.1,3.9,2.3,7.8,3.5,11.6c0.6,1.8,1.3,3.6,2,5.4h1.2C40.9,130.3,40.2,128.4,39.5,126.5L39.5,126.5z"/>
	<path class="st1" d="M28.4,114.2c-2.2-4.9-4.1-10-5.8-15.1c-1-3.1-2-6.1-2.9-9.3c0,0-0.1,0-0.1,0.1c0,0,0,0-0.1,0
		c0,0-0.1,0-0.1,0.1c-0.1,0-0.1,0-0.2,0c0,0,0,0,0,0c-0.1,0-0.2,0-0.3-0.1c0,0,0,0,0,0c-0.1,0-0.1-0.1-0.2-0.1c0,0,0,0,0,0
		c0,0.1,0,0.1,0,0.2c0.8,2.9,1.7,5.9,2.7,8.7c1.7,5,3.6,10,5.7,14.9c2.5,6,4.7,12.1,7.2,18.1c0,0,0,0,0,0c0,0,0.1,0,0.1,0
		c0.4,0,0.7,0.1,1.1,0.1C33,126.1,30.8,120.1,28.4,114.2L28.4,114.2z"/>
	<path class="st1" d="M24.4,91.2c0,0,0-0.1,0-0.1c-0.3,0.1-0.6,0-0.9-0.2c0,0-0.1-0.1-0.1-0.1c-0.1-0.1-0.2-0.1-0.3-0.2
		c0,0.1,0,0.2,0,0.3c1.3,3.1,2.5,6.2,3.6,9.3c3.9,10.6,7.3,21.4,10.9,32c0,0,0,0,0,0l0.2,0l0.9,0.1c-3.7-10.6-7-21.3-10.8-31.9
		C26.8,97.3,25.6,94.2,24.4,91.2z"/>
	<path class="st1" d="M11.6,94.8c-0.2-0.4-0.4-0.9-0.6-1.3c-1.2-3.2-2.7-6.3-4.4-9.3c-0.4,0.3-0.9,0.3-1.2-0.1l-0.2-0.2
		c0,0.1,0,0.2,0.1,0.2c1.9,3,3.4,6.2,4.7,9.5c0.1,0.3,0.3,0.7,0.4,1c1.6,3.9,3.4,7.8,5.2,11.6c3.7,7.8,7.4,15.6,10.5,23.6
		c0,0,0,0,0,0c0.4,0.2,0.9,0.3,1.3,0.5c0,0,0,0,0,0c-3.2-8.4-7.1-16.4-10.9-24.5C14.8,102.1,13.2,98.5,11.6,94.8z"/>
	<path class="st1" d="M14,108.1c-2.8-6.1-5.5-12.3-8-18.6c-1-2.5-2-5-2.9-7.5c0,0,0,0,0,0c0,0,0,0-0.1,0.1c-0.3,0.3-0.6,0.5-0.9,0.3
		c0.5,1.3,1,2.6,1.5,3.9c2.8,7.2,5.8,14.3,9,21.3c3.1,6.8,6.6,13.4,9.8,20.2c0,0,0,0,0,0c0,0,0,0,0.1,0c0.1,0.1,0.1,0.1,0.2,0.2
		c0.3,0.2,0.7,0.5,1,0.7c0.1,0.1,0.2,0.1,0.4,0.2c0,0,0,0,0,0c0,0,0,0,0,0C20.8,122,17.2,115.1,14,108.1z"/>
	<path class="st1" d="M19.4,98.3c-1.3-3.5-2.6-7-3.9-10.5c0,0,0,0,0,0c-0.2,0.2-0.4,0.4-0.6,0.6c-0.1,0-0.2,0.1-0.2,0.1c0,0,0,0,0,0
		c1.1,3.2,2.3,6.3,3.5,9.5c4.3,11.2,9.1,22.1,13.2,33.4c0.4,0.1,0.8,0.2,1.1,0.2c0,0,0,0,0.1,0c0,0,0,0,0,0
		C28.5,120.3,23.7,109.4,19.4,98.3z"/>
	<polygon class="st1" points="15.6,87.8 15.6,87.8 15.6,87.8 	"/>
	<path class="st1" d="M21.8,110.5L21.8,110.5c-2-4.5-3.9-9-5.9-13.5c-1.6-3.6-3.3-7.2-5.1-10.8c0,0,0,0,0,0
		c-0.3,0.2-0.6,0.3-0.9,0.3c0,0-0.1,0-0.1,0c1.6,3.3,3.2,6.6,4.7,9.9c2.2,4.8,4.3,9.6,6.4,14.5c2.9,6.6,5.8,13.2,8.5,20c0,0,0,0,0,0
		c0.4,0.1,0.8,0.2,1.3,0.3c0,0,0,0,0,0C27.8,124.1,24.8,117.3,21.8,110.5z"/>
	<path class="st1" d="M80.7,88.2L80.7,88.2c0-0.2,0-0.3-0.1-0.4c0,0-0.1-0.1-0.1-0.1c0.1,0.5-0.3,0.8-0.9,0.8c0,0,0,0,0,0
		c-0.5,1.9-1.5,4.8-2.8,8.2c-4,10.6-10.8,26.4-14.2,35.5l0.2,0l1.2-0.1c0,0,0,0,0,0c3.4-8.8,10.3-25.3,14.2-35.8
		C79.3,92.7,80.3,89.9,80.7,88.2z"/>
	<path class="st1" d="M46.8,114.6c-0.6-4.3-1.2-8.6-1.8-12.8c-0.5-3.4-1-6.8-1.4-10.3c-0.1-0.2-0.3-0.2-0.5-0.1c0,0,0,0-0.1,0
		c0,0,0,0-0.1,0c-0.2,0.1-0.3,0.2-0.4,0.4c0,0.1,0,0.2-0.1,0.2c0,0.1,0,0.2,0,0.2c0.4,3.2,0.8,6.4,1.3,9.5c0.6,4.3,1.2,8.6,1.8,12.9
		c0.8,5.9,1.2,11.8,1.8,17.8c0,0,0,0,0,0h0.3h0.8C47.9,126.5,47.5,120.5,46.8,114.6L46.8,114.6z"/>
	<path class="st1" d="M91.3,83.5L91.3,83.5c0.1-0.2,0-0.6-0.3-0.7c-0.1,0-0.2,0-0.3,0c0,0,0,0-0.1,0c0.2,0.9-0.3,1.7-1.1,2
		c0,0,0,0,0,0.1c-0.9,1.9-2.1,4.5-3.5,7.5c-5.4,11.5-13.6,28.8-17.7,39l1.3-0.3c4.4-10.6,12.9-28.5,18.1-39.7
		C89.3,88,90.5,85.2,91.3,83.5z"/>
	<path class="st1" d="M76,87.9L76,87.9c0.1-0.2,0-0.5-0.3-0.6c0,0,0,0-0.1,0c-0.3,0.7-0.7,1.3-1.2,1.8c0,0,0,0,0,0
		c-1,3.1-2.1,6.2-3.1,9.3c-3.9,11.3-7.9,22.5-11.4,33.9c0,0,0,0,0,0l0.1,0l0.6,0l0.4,0c0,0,0,0,0,0c3.6-11.5,7.7-22.8,11.6-34.2
		C73.8,94.6,74.9,91.3,76,87.9z"/>
	<path class="st1" d="M94.9,80.7c0-0.2-0.1-0.3-0.3-0.4c0,0-0.1-0.1-0.1-0.1c0,0,0.1,0.1,0.1,0.1c0.3,0.8,0,1.7-0.8,2.1
		c0,0,0,0.1,0,0.1c-0.1,1.7-0.8,3.4-1.5,5.1c-0.7,1.6-1.6,3.2-2.2,4.7c-1.9,4.2-12,24.7-17.7,37.7c0.5-0.2,1-0.5,1.5-0.8
		c6-13.3,15.8-33.5,17.7-37.6v0c0.8-1.8,1.9-3.7,2.6-5.8C94.8,84.2,95.2,82.4,94.9,80.7z"/>
	<path class="st1" d="M76.3,109.6c2-4.1,3.8-8.3,5.8-12.4c0.6-1.2,1.1-2.4,1.6-3.5c1.1-2.4,2-4.9,2.4-7.6c0-0.3-0.2-0.5-0.4-0.6
		c0,0-0.1,0-0.1,0c0,0-0.1,0-0.1,0c0.9,0.5,0.1,1.2-0.6,1.5c0,0,0,0,0,0.1c-0.6,2.5-1.5,4.9-2.5,7.3c-0.5,1.1-1,2.2-1.5,3.2
		c-2,4.1-3.8,8.4-5.8,12.5c-3.6,7.1-6.8,14.3-9.5,21.8l1.2-0.2C69.4,124.1,72.6,116.7,76.3,109.6L76.3,109.6z"/>
	<path class="st1" d="M63.4,115.1c1.6-5.2,3.3-10.6,4.6-15.9c0.8-3.3,1.5-6.7,2-10.1c0-0.2-0.1-0.4-0.2-0.5v0.1
		c-0.1,0.8-0.5,1.5-1.1,2.1c-0.5,2.9-1.1,5.8-1.8,8.7c-1.4,5.5-3.1,10.9-4.7,16.2c-1.2,3.8-2.4,7.7-3.5,11.6
		c-0.5,1.7-0.8,3.4-1.2,5.1c0,0,0,0,0,0h1.1c0,0,0,0,0-0.1c0.2-1,0.4-2,0.7-2.9l0-0.1C60.3,124.5,61.9,119.8,63.4,115.1z"/>
	<path class="st1" d="M57.2,101c0.4-3.3,0.9-6.6,1.5-9.8c0-0.1,0-0.3-0.1-0.4c0,0-0.1-0.1-0.1-0.1c-0.1-0.1-0.3-0.1-0.5,0
		c-0.2,0.1-0.3,0.2-0.3,0.4c0,0.2-0.1,0.3-0.1,0.5l-0.1-0.1l0,0c0,0.1,0,0.1,0,0.2c-0.6,3.1-1,6.3-1.4,9.4c-0.6,4.8-1,9.6-1.7,14.3
		c-0.9,5.7-1.3,11.4-1.9,17.1c0,0,0,0,0,0h1.1c0,0,0,0,0,0c0.6-5.6,1.1-11.3,1.9-16.9C56.2,110.7,56.7,105.8,57.2,101z"/>
	<path class="st1" d="M50.8,91.3c-0.1-0.1-0.4-0.2-0.5-0.1c-0.2-0.1-0.4,0-0.5,0.1c0,0,0,0,0,0.1c0.6,3.3,0.5,6.7,0.3,10.1
		c0,0.5-0.1,1-0.1,1.4c-0.2,3.9-0.2,7.5-0.1,11.3c0.1,6-0.2,12.1-0.2,18.1l1,0l0,0c0,0,0,0,0,0c0.1-6.1,0.4-12.2,0.2-18.2
		c-0.1-4.3,0-8.5,0.2-12.7c0,0,0-0.1,0-0.1C51.5,98,51.4,94.7,50.8,91.3C50.8,91.4,50.8,91.4,50.8,91.3z"/>
	<path class="st1" d="M63.3,100.1c0.8-3.5,1.6-6.9,2.4-10.4c0,0,0,0,0-0.1c-0.3-0.1-0.6,0-0.8,0.2c0,0,0,0,0,0
		c-0.1,0-0.3,0.2-0.3,0.3l-0.3,0.8c0,0.1,0,0.2-0.1,0.2c-0.7,3-1.4,6-2.1,9c-1.2,5.1-2.5,10.1-3.8,15.1c-1.4,5.6-2.5,11.3-3.7,17h1
		h0.1c0,0,0,0,0,0c1.2-5.6,2.3-11.2,3.7-16.8C60.7,110.5,62,105.3,63.3,100.1z"/>
</g>
<path id="cake" class="st2" d="M1,80.3c0.1,0,0.2,0.1,0.2,0.2c0.1,0.4,0.2,0.8,0.4,1.2c0.1,0.2,0.3,0.5,0.5,0.6
	c0.3,0.2,0.7,0.1,0.9-0.2c0,0,0,0,0.1-0.1c0.2-0.3,0.4-0.7,0.6-0.9c0.1-0.1,0.1-0.2,0.2-0.2c0.3-0.4,0.9-0.3,0.9,0.2
	c0,0.9-0.1,2.2,0.6,2.9s1.7-0.2,2.3-0.9c0-0.2,0.2-0.4,0.5-0.5h0.3c0.4,0,0.8,0.5,0.5,0.9l-0.1,0.1c-0.1,0.9,0.1,1.8,0.6,2.6
	c0.1,0.1,0.3,0.2,0.4,0.2c0.3,0,0.7-0.1,0.9-0.3c0,0,0,0,0,0c0.5-0.4,1-1,1.3-1.3c0.1-0.1,0.2-0.2,0.4-0.2c0.2-0.1,0.5,0.1,0.5,0.3
	c0,0.1,0,0.1,0,0.1v0.1c0.1,0.6,0.2,1.2,0.4,1.8c0.2,0.4,0.7,1.4,1.3,1.4c0.1,0,0.2,0,0.2-0.1c0.2-0.1,0.5-0.3,0.6-0.6c0,0,0,0,0,0
	h0c0,0,0,0,0,0c0,0,0,0,0,0c0.3-0.4,0.6-0.9,0.9-1.3c0-0.1,0-0.2,0-0.2c0-0.7,1.1-0.8,1.1-0.1c0,0,0,0,0,0c0.2,0.2,0.2,0.5,0,0.7
	c0,1,0.2,1.9,0.8,2.7c0.1,0.1,0.2,0.2,0.3,0.3c0,0,0,0,0,0c0.1,0.1,0.3,0.2,0.5,0.2c0,0,0,0,0,0c0.1,0,0.1,0,0.2,0
	c0,0,0.1,0,0.1-0.1c0,0,0,0,0.1,0c0.8-0.4,1.3-2,1.4-2.6c0.1-0.3,0.4-0.5,0.7-0.5c0.3,0.1,0.5,0.4,0.5,0.7c-0.1,1.2,0.3,2.3,1.1,3.1
	c0,0,0.1,0.1,0.1,0.1c0.3,0.2,0.6,0.3,0.9,0.2c0,0,0,0.1,0,0.1c0.9-0.2,1.2-1.5,1.4-2.4c0.1-0.7,1.2-0.5,1.1,0.2
	c0.1,0.1,0.2,0.2,0.2,0.4c0.1,0.7,0.4,2.2,1.2,2.7c0.1,0.1,0.3,0.1,0.4,0.1c0.1,0,0.2,0,0.3,0c0,0,0,0,0,0.1
	c1.2-0.1,1.9-1.3,2.4-2.2c0.1-0.1,0.1-0.2,0.2-0.2c0,0,0,0,0-0.1c0,0,0.1,0,0.1,0c0.1,0,0.2,0,0.3,0.1c0.2,0.1,0.3,0.2,0.3,0.4
	c0.1,0.7,0.3,1.4,0.5,2c0.3,0.7,1.7,3,2.9,1.2c0.5-0.7,0.8-1.5,1.2-2.2c0,0,0,0,0,0c0,0,0-0.1,0.1-0.1c0,0,0,0,0,0
	c0-0.1,0.1-0.1,0.1-0.1c0.1-0.1,0.3-0.1,0.5,0h0.1c0.1,0.1,0.2,0.1,0.2,0.2c1,2.2,3.6,4.7,4.6,1.3c0-0.1,0-0.2,0-0.2
	c0-0.1,0-0.2,0.1-0.2c0.1-0.2,0.2-0.3,0.4-0.4c0,0,0,0,0.1,0c0,0,0,0,0.1,0c0.2-0.1,0.5,0,0.6,0.3c0.4,1.8,2.8,5.5,4.7,2.4
	c0.5-0.8,0.8-1.8,1.4-2.5c0,0,0,0,0,0c0,0,0,0,0-0.1c0.1-0.2,0.4-0.2,0.5-0.1c0.2-0.1,0.4-0.1,0.5,0.1c0,0,0,0.1,0,0.1
	c0,0,0.1,0,0.1,0c1.9,3,5.5,3.8,6.7,0.2c0-0.1,0-0.1,0-0.2l0,0c0.1-0.2,0.1-0.3,0.1-0.5c0-0.2,0.2-0.4,0.5-0.5
	c0.3,0,0.6,0.2,0.6,0.5c0.6,2.4,3.8,4.1,5.1,1.1c0.1-0.2,0.2-0.5,0.3-0.7c0-0.1,0-0.2,0.1-0.2l0.3-0.8c0-0.1,0.2-0.3,0.3-0.3
	c0,0,0,0,0,0c0.1-0.3,0.5-0.4,0.8-0.2c0,0,0,0,0,0.1c0.1,0.1,0.2,0.1,0.2,0.2c1.3,2.7,3.6,0.8,3.9-1.3c0.1-0.6,1.1-0.6,1.1,0
	c0.1,2.7,2.2,1.8,3.7,0.4c0,0,0,0,0,0c0.5-0.5,0.9-1.1,1.2-1.8c0,0,0,0,0.1,0c0,0,0,0,0,0c0-0.1,0.1-0.2,0.2-0.3
	c0.1-0.1,0.1-0.1,0.2-0.2c0.3-0.1,0.6,0,0.7,0.3c0.4,0.9,1.7,1.4,2.6,1.4c0.6,0,1-0.3,0.9-0.8c0.1,0,0.1,0.1,0.1,0.1
	c0-0.2-0.1-0.4-0.3-0.6c-0.4-0.5,0.3-1.2,0.8-0.7c0.8,0.9,2.1,1.3,3.3,0.9c0.1,0,0.3-0.1,0.5-0.2c0,0,0,0,0-0.1
	c0.7-0.4,1.5-1,0.6-1.5c0,0,0.1,0,0.1,0c0,0-0.1-0.1-0.1-0.1c-0.1-0.1-0.2-0.1-0.2-0.2c-0.1-0.3,0-0.6,0.2-0.8
	c0-0.1,0.1-0.1,0.1-0.2c0.2-0.2,0.6-0.2,0.8,0c0.8,0.8,2.2,1,3.2,0.6c0,0,0,0,0-0.1c0.8-0.3,1.3-1.1,1.1-2c0,0,0,0,0.1,0
	c0-0.1,0-0.2-0.1-0.3c-0.2-0.5,0.6-1.1,0.9-0.5c0.4,0.8,1.4,1.1,2.2,0.8c0,0,0.1,0,0.1-0.1c0,0,0-0.1,0-0.1c0.8-0.4,1.1-1.3,0.8-2.1
	c0,0-0.1-0.1-0.1-0.1c0,0,0.1,0,0.1,0.1c-0.1-0.2-0.3-0.3-0.4-0.5c-0.1-0.1-0.1-0.2-0.1-0.3v-0.2c0.1-0.2,0.3-0.4,0.5-0.4h0.1
	c0.1,0,0.2,0.1,0.3,0.2l0.1,0.1c0.1,0.1,0.2,0.3,0.3,0.4c0,0.1,0.1,0.1,0.2,0.2c0.4,0.3,1.1,0.3,1.4-0.2c0.5-0.4,1-1,1.4-1.5
	c0.1-0.2,0.3-0.2,0.5-0.2c0,0,0,0,0,0c0,0,0,0,0,0l0,0c0,0,0,0,0,0c-0.3-2.1-1.1-4.2-2.3-5.9c-0.6,1.3-1.7,2.6-3.4,3.6
	c-4.1,2.5-9.1,3.2-13.7,2.1c0.4,0.9-1,1.3-1.6,1.2c-0.8-0.1-1.6-0.5-2.3-1c-0.1,0.7-0.4,1.4-0.9,2c-1.9,2.3-5.3,3.2-8.4,3.3
	c-5.3,0.2-11.4-1.5-15.2-5c-0.2,2.4-1.4,4.4-5.1,4.2c-4.6,0-8.9-2.5-11.3-6.4c-1.1,2-3,3.4-6.3,3.9c-4.1,0.6-11.9-1-15.3-2.9
	c-3.6-2-7.4-5.3-8.7-9.1c-1,0.9-1.9,1.9-2.7,3.1c-1.7,2.8-2.3,6.1-1.6,9.3C0.5,80.1,0.8,80,1,80.3z"/>
<g id="frosting">
	<path class="st3" d="M12.3,50c6.6,3.2,12.6,6.9,19.8,8.8c0.5,0.1,1,0.3,1.5,0.4c3.7,0.8,7.5,1.2,11.3,1.4c0,0,0,0,0,0
		c0-1.1,0.7-2.1,1.4-2.9c-0.2,0-0.5-0.1-0.7-0.1c-7.7-1.2-15.4-3.6-20.9-8C23.9,50.5,23,51.3,22,52c-1.1,0.9-3.3-0.3-2-1.6
		c0.9-0.9,1.6-1.9,2.4-2.9c-2.2-2.4-3.9-5.4-4.7-9c0-0.2,0-0.3,0.1-0.4c-1.6,0.4-3.2,1-4.6,1.9c-4.2,2.5-2.3,6.6-0.7,10
		C12.4,50,12.3,50,12.3,50z"/>
	<path class="st3" d="M23.3,46.3c0.4-0.5,0.9-1.1,1.4-1.5c0.8-0.8,3.2-0.2,2.6,1.2c-0.5,0.9-1,1.8-1.7,2.6c2.5,2.1,5.4,3.8,8.5,4.9
		c4.2,1.6,8.6,2.5,13.1,3.1c0.7-1.2,1.5-2.3,2.4-3.3c-4.3-0.8-8.6-1.9-12.5-3.8c-5.8-2.8-8.4-5.8-11.9-10.6
		c-0.4-0.5-0.1-0.6,0.3-0.3c1.2,0.8,2.3,1.6,3.4,2.6c-1.4-2.6-1.6-5-0.9-7.2c-0.7-0.4-1.4-0.8-2-1.3c-0.7-0.6,0.2-1.5,0.9-1.3
		c0.7,0.2,1.3,0.3,2,0.4c1.6-2.9,4.4-5.6,7.5-8.2c-0.4-0.3-0.8-0.6-1.1-1c-0.6-0.5-1.1-1.1-1.7-1.7c-7.3,4.3-13,11.1-7.8,17.4
		c-2.5-0.7-5.1-0.8-7.6-0.2c0.1,0,0.1,0.1,0.1,0.2C19.4,41.2,21.1,44,23.3,46.3z"/>
	<path class="st3" d="M12.2,63.4c2.8,2.6,7.2,4.4,10.2,5.2c0.9,0.2,1.8,0.4,2.7,0.6c-0.1-0.1-0.1-0.1-0.2-0.2
		c-1.3-0.9-2.5-2-3.5-3.3c-2.4-0.8-4.7-1.9-6.6-3.3c-1.3-1-2.5-2.1-3.4-3.5c-0.1-0.1-0.1-0.2-0.1-0.2c-0.6,0-1.3,0-1.9,0.1
		c0.1,0,0.3,0.1,0.3,0.3C9.9,60.7,10.9,62.1,12.2,63.4z"/>
	<path class="st3" d="M49.1,3.8c0.5,3,0.1,5.8-2,8.3c0.1,0.2,0.3,0.4,0.4,0.7C49.3,10.1,50.1,7.1,49.1,3.8z"/>
	<path class="st3" d="M57.7,8.7c0.1-0.1,0.2-0.3,0.3-0.4c0.2-0.4,0.5-0.7,0.8-1.1c-3-2.5-6.1-4.9-9.3-6.9c-0.2-0.1-0.5-0.1-0.8-0.1
		C51.7,2.8,54.9,5.6,57.7,8.7z"/>
	<path class="st3" d="M53.2,21c-1.7,1-3.7,2.5-5.7,3.2c-3.8,5.1-8.1,10.8-6.7,16.3c0.8-0.2,1.6-0.3,2.3-0.4c0.2-0.3,0.4-0.6,0.6-0.9
		c0.4-0.4,1.3-0.5,1.5,0.2c0,0.1,0.1,0.3,0.1,0.4c0.4-0.1,0.8-0.1,1.2-0.2c5-2.4,10.9-4.2,14.2-8.5c2.6-3.2,3.2-7.6,1.8-11.4
		c-1-2.7-2.3-5.1-4-7.5c-0.3,0.4-0.7,0.8-1,1.1c-0.8,0.9-3,0.4-2.1-1c0.5-0.8,1-1.5,1.5-2.3c-1.2-1.5-2.6-3-4-4.4
		c1.8,4.2,0.6,9.1-1.9,13.5h0c-0.1,0.1-0.1,0.2-0.2,0.3c0.4-0.2,0.9-0.4,1.3-0.5C53.5,18.4,54.5,20.2,53.2,21z M58.7,21.9
		c0.8,0.9,1.6,1.8,2.3,2.8c0.5,0.8,1.4,1.8,1.4,2.8c-0.1,0.9-1.2,1.2-1.9,0.9c-1-0.6-1.8-1.6-2.3-2.8c-0.6-1.1-0.9-2.2-1-3.4
		C57.1,21.5,58.3,21.5,58.7,21.9z M53.8,33.1c1.4,1.4-0.9,2.7-2.2,1.7c-1.7-1.4-3.1-3.1-4.2-4.9c-0.6-0.9,0.9-1.4,1.5-0.9
		C50.7,30.2,52.3,31.6,53.8,33.1z"/>
	<path class="st3" d="M90.5,60.6c4.2-1.8,5.8-5.2,2.9-9.5c-1.5-2.3-3.7-4-6.2-5.3c1,1.2,1.9,2.5,2.8,3.8c0.7,1,1.6,2.1,1.7,3.3
		c0,1.2-1.7,1.2-2.4,0.8c-1.2-0.8-1.9-2.6-2.6-3.7s-1.2-2.3-1.8-3.5c-0.4-0.8,0.4-1.2,1.2-1.2c-2.4-1-5-1.4-7.7-1.3
		c3.2-2.9,4.4-7.7,2.1-11.2c-1.5-2.3-4.7-3-7.4-3.2c-1-0.1-2.1-0.1-3.1-0.1c2.6-3.1,1.1-8.2-1.6-12c-0.1-0.1-0.1-0.1-0.2-0.2
		c-0.4,1.3-0.8,2.5-1.7,3.3c-0.1,0.1-0.3,0.2-0.5,0.2c-0.6,0.1-1.3-0.2-1.4-0.9c-0.1-1.2,0.5-2.5,0.9-3.6c0.2-0.6,0.4-1.1,0.6-1.7
		c-1.6-1.9-3.4-3.8-5.3-5.5c-0.2,0.2-0.4,0.5-0.6,0.8c-0.2,0.3-0.5,0.6-0.8,0.9c2.7,3.4,4.8,7.1,5.3,11.1c1.1,8-5.2,13.3-12.6,16.7
		l0.8-0.2c6.2-1.5,13.2-3.9,16.4-9c0.3-0.4,0.4-0.5,0.4,0c0.2,3-3.4,5.4-7.1,7.1c0.2,0.2,0.3,0.6,0.1,0.9c-0.7,1.2-1.6,2.3-2.6,3.2
		c-0.8,1-1.8,1.7-2.8,2.3c-0.6,0.3-1.8-0.1-1.5-0.9c0.6-1.2,1.4-2.3,2.4-3.2c0.3-0.3,0.6-0.7,0.9-1c-0.9,0.3-1.8,0.6-2.5,0.8
		c-3.8,1.2-7.7,2-11.5,2.8c-0.2,0.8-0.5,1.5-0.7,2.3c-0.4,1.4-1.1,2.7-2.1,3.8c-0.7,0.6-2.2,0.3-2.2-0.7c-0.1-1.5,1-3,1.6-4.3
		c0-0.1,0.1-0.3,0.2-0.4c-3,0.7-5.9,1.4-8.8,2.5c3.1,2.1,6.4,3.8,10,4.9l1.4,0.4c3.7-4.1,12.4-5,17.6-6.5c4.1-1.2,8.5-2.4,12-4.7
		c0.1-0.1,0.3-0.2,0.4-0.3c-0.1-1.2-0.2-2.4-0.4-3.6c-0.3-1.3,2-1.7,2.3-0.5c0.1,0.6,0.3,1.3,0.4,1.9c0.8-1.3,1.1-2.6,1.6-4.5
		c0.2-0.6,0.5-0.3,0.8,0.1c1.4,2.5,0.1,4.7-2.1,6.5c0,0.1,0,0.1,0,0.2c0.3,1.4,0.2,2.8-0.2,4.1c-0.1,0.1-0.1,0.2-0.2,0.3
		c-0.4,0.3-1,0.2-1.3-0.2c-0.4-0.9-0.7-1.8-0.8-2.8c-2.5,1.4-5.2,2.5-6.9,3c-4.1,1.3-8.2,2.3-12.4,3.5c-3.3,0.9-7,1.7-9.8,3.6
		c2,0.5,4.1,1,6.2,1.4c3.4-2.2,7.3-3.6,11.4-4.2c4.9-0.7,9.6-2,14.2-3.9c0.6-0.3,1,0.2,0.4,0.7c-6.7,5.5-17.1,3.2-24.6,7.6
		c3.3,0.5,6.6,1,9.9,1.3c0.8,0.1,1.7,0.2,2.6,0.2c-0.1-0.2-0.2-0.3-0.3-0.5c-0.7-1.1,1-1.8,1.8-1.1c0.7,0.6,1.4,1.2,2,1.9
		c3.9,0.2,7.9,0.5,11.6,1.5c0.1-0.4,0.2-0.9,0.4-1.3c0.3-0.6,1-0.8,1.6-0.5c0.3,0.2,0.5,0.4,0.6,0.8c0.1,0.6,0.1,1.2,0.1,1.9
		c2.5,0.9,4.7,2.1,6.5,4c0.3,0.4,0.2,0.7-0.1,0.5c-1.8-1.4-4.1-2.4-6.5-3.1c0,0.5-0.1,0.9-0.2,1.4h0c0,0.6-0.1,1.2-0.2,1.8
		c5.6,1.3,11.5,3.6,13.3,8.6c0.2,0.6,0,1.2-0.2,0.6c-1.6-4.5-7.3-7-13.2-8.4c0,0.1,0,0.2-0.1,0.3c-0.1,0.3-0.2,0.5-0.3,0.8
		c-0.1,0.2-0.3,0.4-0.6,0.5C87.9,65,93,68.1,94.5,73.5c0.2,0.7-0.2,1-0.4,0.4C91.5,67,80.4,64,73.2,63.2c-8.4-1-16.8-0.3-25.3-0.5
		c-6.6-0.2-13.4-1.1-19.7-3.2c-6.1-2-11.7-4.9-16.3-9.1c-0.1-0.1-0.1-0.1-0.1-0.2c-1.2,0.4-2.1,1.5-2.3,2.8
		c-0.2,2.2,0.7,4.4,2.3,5.8c-0.2,0-0.3,0-0.5-0.1c0.1,0,0.2,0.1,0.3,0.3c1.1,1.3,2.5,2.3,4,3.2c1.7,0.9,3.6,1.7,5.5,2.3
		c0.2-0.1,0.4-0.2,0.6-0.1c0.7,0.3,1.3,0.5,2,0.9c1.1,0.3,2.3,0.6,3.4,0.8c5.9,1.6,12,2.4,18.1,2.4c8.6-0.2,18.8-0.9,26,3.6
		c0.1,0,0.2,0,0.4,0c1.7,0.6,3.2,1.5,4.6,2.6c1.2,0.9,2.8,1.6,3.4,3c0,0,0,0,0,0.1c4.6,1.2,9.5,0.5,13.7-2.1
		c1.7-1.1,2.8-2.3,3.4-3.6C98.6,67.8,95.4,62.9,90.5,60.6z"/>
	<path class="st3" d="M40.9,21.4c-0.5,0.4-1,0.8-1.5,1.2c0.3,0.3,0.6,0.6,0.8,1.1c0.4,0.8-0.8,1.2-1.4,1.1c-0.5-0.1-0.9-0.3-1.3-0.5
		c-2.9,2.5-5.5,5-6.9,7.8c0.4,0.1,0.9,0.2,1.3,0.3c1.4,0.4,2.7,0.8,3.3,2.2c0.3,0.6-0.5,1.1-1,1.1c-1.5-0.2-3.1-0.6-4.5-1.1
		c-0.7,2.7-0.2,5.7,2.2,9c0.1,0.1,0.1,0.2,0.1,0.3c0,0,0.1-0.1,0.2-0.1c2.2-1.5,4.7-2.5,7.3-3.1c-2-5.5,3-11.5,6.2-16.2
		c-0.1,0-0.2,0-0.3,0c-0.7,0-1.2-0.7-0.6-1.2c1-0.8,2.1-1.5,3.2-2.2C51,16,53.6,10.4,51.1,5.2c0.4,2.9-0.9,6-3,8.7
		c0.3,0.7,0.6,1.3,0.4,2.1c-0.2,0.7-1.1,0.8-1.7,0.5c-0.2-0.1-0.4-0.3-0.5-0.4C44.5,18.2,42.6,20,40.9,21.4z"/>
	<path class="st3" d="M38.4,21.8c2.5-2.1,5.1-4.2,7.1-6.5c-0.3-0.3-0.5-0.7-0.6-1.1c-2.8,2.2-6.1,3.8-9.3,5.5c0.7,0.5,1.4,1,2,1.4
		C37.8,21.4,38.1,21.6,38.4,21.8z"/>
	<path class="st3" d="M70.9,73.3c-4.9-2.7-10.4-3.9-16.6-3.8c-6.7,0-13.3,0.5-19.9-0.7c-2-0.4-4.3-0.8-6.5-1.2
		c1.3,0.7,2.6,1.4,3.4,2.4c0.1,0.1,0.1,0.3,0.2,0.4c1,0.2,1.9,0.3,2.9,0.5c6.3,1.1,12.8,2.2,16.2,7c0.4,0.5,0.4,0.8,0,0.4
		c-5.2-4.8-12.5-5.8-19.6-7c-0.2,0.1-0.5,0.2-0.8,0.2c-1,0-2-0.4-2.9-0.9c-1.1-0.2-2.1-0.4-3.2-0.7c-3.6-0.8-9.9-2.9-13.1-6.2
		C9.8,62.5,9,61,9,59.4c0-0.3,0.1-0.4,0.3-0.5C8.5,59,7.7,59.3,7,59.7c0,0,0,0.1-0.1,0.2c-1,2.3-0.8,4.3,0.2,6
		c2.6,4.6,10.9,6.9,16.3,7c3.3,0.1,9.4-0.4,10.8,3.1c0.2,0.4-0.1,0.4-0.3,0.1c-2.6-2.8-8.8-1.6-12.3-1.8c-2.6-0.1-5.2-0.6-7.7-1.5
		c-3.6-1.4-6.6-3.5-7.9-6.2c-0.9-1.9-1-4.1,0.3-6.5c-1,0.8-1.8,1.8-2.1,3.2c-0.4,1.6-0.2,3.1,0.3,4.5c1.3,3.8,5.1,7.1,8.7,9.1
		c3.4,1.9,11.3,3.6,15.3,2.9c3.2-0.5,5.2-1.9,6.3-3.9c2.4,4,6.7,6.4,11.3,6.4c3.7,0.1,4.9-1.9,5.1-4.2c3.8,3.5,9.9,5.2,15.2,5
		c3.1-0.1,6.5-0.9,8.4-3.3c0.5-0.6,0.8-1.3,0.9-2c-0.6-0.5-1.2-1-1.8-1.5C72.8,75.6,71.8,74.5,70.9,73.3z"/>
	<path class="st3" d="M47.8,60.8c3.8,0.1,7.6,0,11.4,0c5.5,0,13.6,0.1,20.7,1.8c0,0,0,0,0,0c-0.1-0.6-0.1-1.1-0.1-1.7
		c-3-0.5-5.9-0.8-8.2-1c-7.2-0.6-14.5-0.8-21.8-1.7C49.2,59.2,48.7,60.1,47.8,60.8z"/>
	<path class="st3" d="M69.6,58.6c-0.3-0.3-0.6-0.6-0.8-0.9c-0.5-0.6-1-1.2-1.4-1.8c-0.1-0.2-0.3-0.3-0.4-0.5
		c-4-0.3-7.9-0.7-11.9-1.2c-1.1-0.2-2.3-0.3-3.4-0.5c-0.3,1.2-0.7,2.3-1.2,3.4c0.7,0.1,1.5,0.2,2.2,0.2c1.7,0.2,3.5,0.3,5.2,0.5
		C61.8,58,65.7,58.3,69.6,58.6z"/>
	<path class="st3" d="M71.3,58.8c2.1,0.2,4.2,0.5,6.2,0.8c0.5,0.1,1.1,0.2,1.6,0.3c0.2,0,0.5,0.1,0.7,0.1c0.1-0.5,0.1-1,0.3-1.5
		c0.1-0.6,0.2-1.2,0.3-1.8c-3.2-0.6-6.5-0.9-9.5-1.1c0.4,0.6,0.8,1.3,1,2c0,0.2,0,0.4-0.1,0.5C71.7,58.4,71.6,58.7,71.3,58.8z"/>
</g>
<g id="shadow">
	<path class="st4" d="M47.8,1c0,0.1,0.1,0.1,0.2,0.2v0.1c0,0,0,0,0,0c0.5,0.9,0.9,1.7,1.1,2.6c1,3.3,0.2,6.2-1.6,8.9
		c0,0.1,0.1,0.1,0.1,0.2c0.2,0.4,0.4,0.7,0.6,1.1c2-2.8,3.4-5.8,3-8.7c2.5,5.2-0.1,10.7-3.4,15.9c0.2-0.1,0.4-0.2,0.6-0.4
		c0.8-0.5,1.6-1,2.4-1.4c0.1-0.1,0.1-0.2,0.2-0.3h0c2.5-4.5,3.8-9.4,1.9-13.5c1.4,1.4,2.7,2.9,4,4.4c0.3-0.4,0.6-0.9,0.9-1.3
		c-2.8-3.1-6-5.9-9-8.4c-0.1-0.1-0.2-0.1-0.2-0.2C48-0.3,47,0.3,47.6,0.7L47.8,1z"/>
	<path class="st4" d="M37.1,49.4c3.8,1.9,8.1,3,12.5,3.8c0.1-0.2,0.2-0.3,0.4-0.5c0.6-0.7,2.1-0.4,1.8,0.6c0,0.1,0,0.2-0.1,0.2
		c1.1,0.2,2.3,0.4,3.4,0.5c4,0.6,7.9,0.9,11.9,1.2c-0.4-0.6-0.8-1.1-1.3-1.8c-0.9-0.1-1.8-0.1-2.6-0.2c-3.3-0.3-6.6-0.8-9.9-1.3
		c7.5-4.4,17.9-2.1,24.6-7.6c0.6-0.5,0.2-1-0.4-0.7c-4.5,1.9-9.3,3.2-14.2,3.9c-4.1,0.5-8,1.9-11.4,4.2c-2.1-0.4-4.2-0.8-6.2-1.4
		c2.8-1.9,6.5-2.7,9.8-3.6c4.1-1.1,8.2-2.1,12.4-3.5c1.7-0.6,4.5-1.6,6.9-3c0-0.3,0-0.6,0-0.9c0-0.3,0-0.5-0.1-0.8
		c-0.1,0.1-0.3,0.2-0.4,0.3c-3.5,2.3-7.9,3.5-12,4.7c-5.3,1.5-13.9,2.4-17.6,6.5l-1.4-0.4c-3.6-1.1-6.9-2.8-10-4.9
		c2.9-1.1,5.8-1.8,8.8-2.5c0.3-0.8,0.7-1.6,1.1-2.3c-0.8,0.1-1.6,0.3-2.3,0.4c-1.4-5.5,3-11.2,6.7-16.3c-0.6,0.2-1.3,0.4-2,0.4
		c-3.2,4.6-8.2,10.7-6.2,16.2c-2.6,0.5-5.1,1.6-7.3,3.1c-0.1,0-0.1,0.1-0.2,0.1c0-0.1,0-0.2-0.1-0.3c-2.4-3.3-2.9-6.3-2.2-9
		c0,0,0,0-0.1,0c-0.6-0.2-1.1-0.4-1.6-0.7c-0.6,2.2-0.5,4.6,0.9,7.2c-1.1-0.9-2.2-1.8-3.4-2.6c-0.4-0.3-0.7-0.2-0.3,0.3
		C28.7,43.6,31.3,46.6,37.1,49.4z"/>
	<path class="st4" d="M37.5,24.2c-0.4-0.2-0.8-0.4-1.2-0.7c-3.1,2.6-5.9,5.3-7.5,8.2c0.6,0.1,1.2,0.2,1.7,0.4
		C32,29.3,34.6,26.7,37.5,24.2z"/>
	<path class="st4" d="M60.7,31.1c-3.3,4.3-9.2,6.1-14.2,8.5c-0.4,0.1-0.8,0.1-1.2,0.2c0.1,0.6,0.1,1.3-0.1,1.9
		c3.9-0.8,7.7-1.6,11.5-2.8c0.7-0.2,1.5-0.5,2.5-0.8c0.7-0.6,1.4-1.2,2.2-1.7c0.5-0.3,1.1-0.1,1.4,0.2c3.7-1.7,7.2-4.1,7.1-7.1
		c0-0.5-0.1-0.4-0.4,0c-3.2,5.1-10.2,7.5-16.4,9l-0.8,0.2c7.4-3.4,13.7-8.7,12.6-16.7c-0.5-4-2.6-7.7-5.3-11.1
		c-0.4,0.4-0.7,0.9-1.1,1.3c1.7,2.3,3,4.8,4,7.5C63.9,23.5,63.2,27.8,60.7,31.1z"/>
	<path class="st4" d="M40.9,21.4c1.7-1.4,3.7-3.2,5.5-5.2c-0.3-0.3-0.6-0.6-0.9-0.9c-2,2.2-4.6,4.3-7.1,6.5c0.4,0.3,0.7,0.5,1.1,0.8
		C39.9,22.2,40.4,21.8,40.9,21.4z"/>
	<path class="st4" d="M22.4,47.5c0.3-0.4,0.6-0.8,0.9-1.1c-2.1-2.4-3.8-5.1-5-8.1c0-0.1-0.1-0.1-0.1-0.2c-0.1-0.1-0.3-0.1-0.4,0.1
		c-0.1,0.1-0.1,0.2-0.1,0.4C18.5,42.1,20.1,45,22.4,47.5z"/>
	<path class="st4" d="M14.8,62.4c1.9,1.4,4.2,2.5,6.6,3.3c-0.2-0.2-0.3-0.4-0.5-0.6c-0.2-0.3-0.1-0.6,0.2-0.7
		c-1.9-0.6-3.8-1.3-5.5-2.3c-1.5-0.9-2.9-1.9-4-3.2c-0.1-0.1-0.2-0.2-0.3-0.3c0,0,0,0,0,0c0,0,0,0.1,0.1,0.2
		C12.3,60.3,13.4,61.4,14.8,62.4z"/>
	<path class="st4" d="M80.8,55.3c-3.7-0.9-7.7-1.2-11.6-1.5c0.3,0.3,0.5,0.5,0.8,0.8c0.3,0.3,0.6,0.7,0.9,1c3,0.2,6.3,0.5,9.5,1.1
		C80.5,56.3,80.7,55.8,80.8,55.3z"/>
	<path class="st4" d="M96.3,69.3c-1.7-5-7.7-7.3-13.3-8.6c-0.1,0.3-0.1,0.6-0.2,0.9c6,1.4,11.7,3.8,13.2,8.4
		C96.3,70.5,96.5,69.9,96.3,69.3z"/>
	<path class="st4" d="M90,60.1c-1.8-1.8-4-3.1-6.5-4c0,0.5,0,0.9-0.1,1.4c2.4,0.7,4.7,1.7,6.5,3.1C90.2,60.8,90.3,60.5,90,60.1z"/>
	<path class="st4" d="M79.2,32.1c-0.2-0.5-0.6-0.8-0.8-0.1c-0.5,1.9-0.8,3.2-1.6,4.5c0.1,0.7,0.2,1.5,0.3,2.2
		C79.4,36.9,80.6,34.6,79.2,32.1z"/>
	<path class="st4" d="M81.9,63.2c-0.7,0.4-1.7,0.3-2-0.5c-7.1-1.7-15.1-1.8-20.7-1.8c-3.8,0-7.6,0.1-11.4,0
		c-0.3,0.3-0.7,0.5-1.2,0.7c-0.6,0.2-1.7,0.1-1.8-0.8c-3.8-0.2-7.5-0.6-11.3-1.4c-0.5-0.1-1-0.3-1.5-0.4c-7.2-1.9-13.3-5.6-19.8-8.8
		c-0.1,0-0.2-0.1-0.2-0.1c-0.3-0.2-0.5,0-0.3,0.3c0,0.1,0.1,0.1,0.1,0.2c4.6,4.2,10.3,7.1,16.3,9.1c6.3,2,13,3,19.7,3.2
		c8.5,0.2,16.9-0.4,25.3,0.5C80.4,64,91.5,67,94.1,73.9c0.2,0.6,0.6,0.3,0.4-0.4C93,68.1,87.9,65,81.9,63.2z"/>
	<path class="st4" d="M24.1,70c1,0.2,2.1,0.5,3.2,0.7c-0.8-0.4-1.5-1-2.2-1.5c-0.9-0.2-1.8-0.4-2.7-0.6c-3-0.8-7.4-2.6-10.2-5.2
		c-1.3-1.2-2.3-2.6-2.5-4.2c0-0.2-0.2-0.3-0.3-0.3c0,0,0,0-0.1,0C9.1,58.9,9,59.1,9,59.4c0,1.7,0.8,3.2,2.1,4.5
		C14.3,67.1,20.5,69.2,24.1,70z"/>
	<path class="st4" d="M23.5,72.9c-5.4-0.1-13.6-2.4-16.3-7c-1-1.7-1.2-3.7-0.2-6c0-0.1,0-0.1,0.1-0.2c0-0.3-0.5,0-0.7,0.4
		c0,0,0,0.1,0,0.1c-1.3,2.4-1.2,4.6-0.3,6.5c1.3,2.7,4.4,4.8,7.9,6.2c2.5,0.9,5,1.4,7.7,1.5c3.6,0.1,9.7-1,12.3,1.8
		c0.2,0.2,0.4,0.3,0.3-0.1C32.9,72.5,26.8,72.9,23.5,72.9z"/>
	<path class="st4" d="M46.3,57.8c0-0.1,0.1-0.1,0.1-0.2c0.2-0.3,0.5-0.6,0.7-0.9c0,0,0-0.1,0.1-0.1c-4.5-0.6-8.9-1.6-13.1-3.1
		c-3.2-1.1-6.1-2.8-8.5-4.9c-0.3,0.4-0.6,0.7-0.9,1.1c5.4,4.5,13.2,6.8,20.9,8C45.8,57.7,46.1,57.7,46.3,57.8z"/>
	<path class="st4" d="M71.3,58.8c-0.5,0.3-1.2,0.3-1.7-0.1c0,0,0,0,0,0c-3.9-0.4-7.9-0.6-11.8-0.9c-1.7-0.1-3.4-0.3-5.2-0.5
		c-0.7-0.1-1.5-0.2-2.2-0.2c-0.1,0.1-0.1,0.2-0.2,0.4c-0.1,0.2-0.2,0.4-0.4,0.7c0,0.1-0.1,0.1-0.1,0.2c7.2,0.9,14.5,1.1,21.8,1.7
		c2.3,0.2,5.2,0.5,8.2,1c0-0.2,0-0.3,0-0.5c0-0.1,0-0.3,0-0.4c-0.2,0-0.5-0.1-0.7-0.1c-0.5-0.1-1.1-0.2-1.6-0.3
		C75.5,59.3,73.4,59,71.3,58.8z"/>
	<path class="st4" d="M45.2,68.4c-6.1,0-12.2-0.9-18.1-2.4c-1.1-0.3-2.2-0.5-3.4-0.8c1.1,0.5,2.1,1.1,3.1,1.7c0.3,0.2,0.7,0.4,1,0.6
		c2.3,0.5,4.5,0.9,6.5,1.2c6.6,1.2,13.2,0.8,19.9,0.7c6.2-0.1,11.7,1.1,16.6,3.8c-0.1-0.1-0.1-0.2-0.2-0.3c-0.2-0.4,0.1-0.9,0.5-0.9
		C64,67.6,53.8,68.3,45.2,68.4z"/>
	<path class="st4" d="M34.3,70.8c-1-0.2-1.9-0.3-2.9-0.5c0.1,0.4-0.2,0.7-0.5,0.9c7.1,1.1,14.5,2.2,19.6,7c0.4,0.3,0.3,0.1,0-0.4
		C47.1,73.1,40.7,71.9,34.3,70.8z"/>
</g>
<g id="orange_x5F_sprinkles">
	<path class="st5" d="M52,18.9c-0.4,0.2-0.9,0.4-1.3,0.5c-0.8,0.4-1.6,0.8-2.4,1.4c-0.2,0.1-0.4,0.2-0.6,0.4
		c-1.1,0.7-2.2,1.4-3.2,2.2c-0.6,0.5,0,1.2,0.6,1.2c0.1,0,0.2,0,0.3,0c0.7,0,1.3-0.2,2-0.4c2-0.7,4-2.2,5.7-3.2
		C54.5,20.2,53.5,18.4,52,18.9z"/>
	<path class="st5" d="M31.8,32.4c-0.4-0.1-0.9-0.2-1.3-0.3c-0.6-0.1-1.2-0.2-1.7-0.4c-0.7-0.1-1.3-0.3-2-0.4
		c-0.8-0.2-1.6,0.6-0.9,1.3c0.6,0.5,1.3,1,2,1.3c0.5,0.3,1.1,0.5,1.6,0.7c0,0,0,0,0.1,0c1.4,0.6,3,1,4.5,1.1c0.5,0,1.3-0.5,1-1.1
		C34.5,33.1,33.2,32.8,31.8,32.4z"/>
	<path class="st5" d="M49.9,52.8c-0.1,0.2-0.2,0.3-0.4,0.5c-0.9,1.1-1.7,2.2-2.4,3.3c0,0,0,0.1-0.1,0.1c-0.2,0.3-0.4,0.6-0.7,0.9
		c0,0.1-0.1,0.1-0.1,0.2c-0.7,0.9-1.4,1.8-1.4,2.9c0,0,0,0,0,0c0,0.9,1.2,1,1.8,0.8c0.5-0.2,0.9-0.4,1.2-0.7
		c0.8-0.7,1.4-1.6,1.9-2.6c0-0.1,0.1-0.1,0.1-0.2c0.1-0.2,0.2-0.4,0.4-0.7c0.1-0.1,0.1-0.2,0.2-0.4c0.5-1.1,1-2.2,1.2-3.4
		c0-0.1,0-0.2,0.1-0.2C52,52.3,50.5,52.1,49.9,52.8z"/>
	<path class="st5" d="M66.9,13.1L66.9,13.1c-0.2,0.5-0.4,1.1-0.6,1.6c-0.2,0.6-0.4,1.1-0.6,1.7c-0.4,1.1-1.1,2.4-0.9,3.6
		c0.1,0.6,0.8,1,1.4,0.9c0.2,0,0.3-0.1,0.5-0.2c0.8-0.9,1.3-2.1,1.7-3.3c0.4-1.3,0.6-2.6,1-3.7C69.7,12.3,67.3,11.9,66.9,13.1z"/>
	<path class="st5" d="M90.1,49.6c-0.9-1.3-1.8-2.5-2.8-3.8c0,0,0-0.1-0.1-0.1c-0.2-0.3-0.6-0.4-1.1-0.4c-0.8,0-1.6,0.4-1.2,1.2
		c0.6,1.2,1.1,2.4,1.8,3.5s1.4,2.9,2.6,3.7c0.7,0.5,2.4,0.4,2.4-0.8C91.7,51.7,90.8,50.6,90.1,49.6z"/>
	<path class="st5" d="M79.6,77.7c-0.6-1.4-2.3-2.1-3.4-3c-1.3-1.2-2.9-2-4.6-2.6c-0.1,0-0.3,0-0.4,0c-0.4,0.1-0.7,0.5-0.5,0.9
		c0.1,0.1,0.1,0.2,0.2,0.3c0.8,1.2,1.9,2.3,3.1,3.2c0.6,0.5,1.1,1,1.8,1.5c0.7,0.5,1.5,0.9,2.3,1C78.6,79,80,78.7,79.6,77.7
		C79.6,77.7,79.6,77.7,79.6,77.7z"/>
	<path class="st5" d="M82.8,53.5c-0.6-0.3-1.3-0.1-1.6,0.5c-0.1,0.4-0.3,0.9-0.4,1.3c-0.1,0.5-0.3,1-0.4,1.5
		c-0.1,0.6-0.3,1.2-0.3,1.8c-0.1,0.5-0.2,1-0.3,1.5c0,0.1,0,0.3,0,0.4c0,0.2,0,0.3,0,0.5c0,0.6,0,1.1,0.1,1.7c0,0,0,0,0,0
		c0.3,0.8,1.3,0.9,2,0.5c0.2-0.1,0.5-0.3,0.6-0.5c0.1-0.3,0.2-0.5,0.3-0.8c0-0.1,0.1-0.2,0.1-0.3c0.1-0.3,0.2-0.6,0.2-0.9
		c0.1-0.6,0.2-1.2,0.2-1.8h0c0.1-0.5,0.1-0.9,0.2-1.4c0-0.5,0.1-0.9,0.1-1.4c0-0.6,0-1.2-0.1-1.9C83.3,53.9,83.1,53.6,82.8,53.5z"/>
	<path class="st5" d="M58.7,21.9c-0.4-0.4-1.6-0.5-1.5,0.3c0.1,1.2,0.4,2.3,1,3.4c0.4,1.1,1.2,2.1,2.3,2.8c0.7,0.3,1.8,0,1.9-0.9
		c0.1-1.1-0.8-2-1.4-2.8C60.3,23.7,59.5,22.8,58.7,21.9z"/>
	<path class="st5" d="M45.3,39.7c0-0.1,0-0.3-0.1-0.4c-0.2-0.7-1.2-0.5-1.5-0.2c-0.2,0.3-0.4,0.6-0.6,0.9c-0.5,0.7-0.8,1.5-1.1,2.3
		c0,0.1-0.1,0.3-0.2,0.4c-0.6,1.3-1.6,2.8-1.6,4.3c0,1,1.5,1.3,2.2,0.7c1-1.1,1.7-2.4,2.1-3.8c0.3-0.8,0.6-1.5,0.7-2.3
		C45.4,41,45.4,40.3,45.3,39.7z"/>
</g>
<g id="yellow_x5F_sprinkles">
	<path class="st6" d="M22,52c1-0.7,1.9-1.5,2.7-2.4c0.3-0.3,0.6-0.7,0.9-1.1c0.6-0.8,1.2-1.6,1.7-2.6c0.6-1.4-1.8-2-2.6-1.2
		c-0.5,0.5-0.9,1-1.4,1.5c-0.3,0.4-0.6,0.8-0.9,1.1c-0.8,1-1.5,2-2.4,2.9C18.7,51.7,20.8,52.9,22,52z"/>
	<path class="st6" d="M49,28.9c-0.6-0.5-2.1,0-1.5,0.9c1.1,1.9,2.5,3.5,4.2,4.9c1.2,0.9,3.6-0.4,2.2-1.7
		C52.3,31.6,50.7,30.2,49,28.9z"/>
	<path class="st6" d="M48.5,16.1c0.2-0.8,0-1.4-0.4-2.1c-0.2-0.4-0.4-0.7-0.6-1.1c0-0.1-0.1-0.1-0.1-0.2c-0.1-0.2-0.3-0.4-0.4-0.7
		c-0.6-1-1.1-1.9-1.8-2.8c-0.6-0.8-2.2-0.4-2,0.7c0.3,1.2,0.7,2.4,1.2,3.6c0.1,0.3,0.2,0.5,0.3,0.8c0.2,0.4,0.4,0.7,0.6,1.1
		c0.3,0.3,0.6,0.6,0.9,0.9c0.2,0.1,0.3,0.3,0.5,0.4C47.4,16.9,48.4,16.8,48.5,16.1z"/>
	<path class="st6" d="M77.2,38.9c0-0.1,0-0.1,0-0.2c-0.1-0.7-0.2-1.5-0.3-2.2c-0.1-0.6-0.2-1.3-0.4-1.9c-0.3-1.2-2.6-0.8-2.3,0.5
		c0.2,1.2,0.4,2.4,0.4,3.6c0,0.3,0,0.5,0.1,0.8c0,0.3,0,0.6,0,0.9c0.1,1,0.3,1.9,0.8,2.8c0.3,0.4,0.9,0.5,1.3,0.2
		c0.1-0.1,0.2-0.2,0.2-0.3C77.4,41.7,77.5,40.3,77.2,38.9z"/>
	<path class="st6" d="M70.9,55.7c-0.3-0.4-0.6-0.7-0.9-1c-0.3-0.3-0.5-0.6-0.8-0.8c-0.7-0.7-1.4-1.2-2-1.9c-0.7-0.7-2.4,0-1.8,1.1
		c0.1,0.2,0.2,0.4,0.3,0.5c0.4,0.6,0.8,1.2,1.3,1.8c0.1,0.2,0.3,0.3,0.4,0.5c0.4,0.6,0.9,1.2,1.4,1.8c0.3,0.3,0.5,0.6,0.8,0.9
		c0,0,0,0,0,0c0.5,0.4,1.2,0.4,1.7,0.1c0.2-0.1,0.4-0.3,0.5-0.6c0.1-0.2,0.1-0.3,0.1-0.5C71.7,56.9,71.4,56.3,70.9,55.7z"/>
	<path class="st6" d="M57.4,13.3c0.3-0.4,0.7-0.8,1-1.1c0.4-0.4,0.8-0.9,1.1-1.3c0.3-0.3,0.5-0.6,0.8-0.9c0.2-0.3,0.4-0.5,0.6-0.8
		c0.7-0.8,1.4-1.5,1.7-2.5c0.4-1.1-1.2-1.7-2-1.2c-0.7,0.5-1.4,1.1-1.9,1.8c-0.3,0.3-0.5,0.7-0.8,1.1c-0.1,0.1-0.2,0.3-0.3,0.4
		c-0.3,0.4-0.6,0.9-0.9,1.3c-0.5,0.7-1,1.5-1.5,2.3C54.4,13.6,56.6,14.1,57.4,13.3z"/>
	<path class="st6" d="M61.4,36.3c-0.8,0.5-1.5,1.1-2.2,1.7c-0.3,0.3-0.6,0.6-0.9,1c-1,0.9-1.8,2-2.4,3.2c-0.3,0.8,0.9,1.1,1.5,0.9
		c1.1-0.6,2.1-1.4,2.8-2.3c1-1,1.9-2,2.6-3.2c0.2-0.4,0.1-0.7-0.1-0.9C62.5,36.1,61.9,36,61.4,36.3z"/>
	<path class="st6" d="M27.9,67.5c-0.4-0.2-0.7-0.4-1-0.6c-1-0.7-2-1.2-3.1-1.7c-0.7-0.3-1.3-0.6-2-0.9c-0.2-0.1-0.4,0-0.6,0.1
		c-0.2,0.2-0.4,0.4-0.2,0.7c0.1,0.2,0.3,0.4,0.5,0.6c1,1.2,2.2,2.4,3.5,3.3c0.1,0.1,0.1,0.1,0.2,0.2c0.7,0.5,1.4,1.1,2.2,1.5
		c0.9,0.5,1.9,0.8,2.9,0.9c0.3,0,0.5-0.1,0.8-0.2c0.3-0.2,0.6-0.6,0.5-0.9c0-0.1-0.1-0.3-0.2-0.4C30.5,68.9,29.1,68.1,27.9,67.5z"/>
	<path class="st6" d="M39.4,22.6c-0.3-0.3-0.7-0.6-1.1-0.8c-0.3-0.2-0.6-0.4-0.8-0.6c-0.6-0.4-1.3-0.9-2-1.4
		c-0.4-0.3-0.8-0.6-1.2-0.9c-0.7-0.6-2.4,0.1-1.7,1c0.3,0.3,0.6,0.7,0.9,1c0.5,0.6,1.1,1.1,1.7,1.7c0.3,0.4,0.7,0.7,1.1,1
		c0.4,0.3,0.8,0.5,1.2,0.7c0.4,0.2,0.9,0.4,1.3,0.5c0.6,0.1,1.8-0.3,1.4-1.1C40,23.3,39.7,22.9,39.4,22.6z"/>
</g>
</svg>
