<?xml version="1.0" encoding="utf-8"?>
<!-- Generator: Adobe Illustrator 28.1.0, SVG Export Plug-In . SVG Version: 6.00 Build 0)  -->
<svg version="1.1" id="cupcake" xmlns="http://www.w3.org/2000/svg" xmlns:xlink="http://www.w3.org/1999/xlink" x="0px" y="0px"
	 viewBox="0 0 893 1169" style="enable-background:new 0 0 893 1169;" xml:space="preserve">
<style type="text/css">
	.st0{fill:#D8C2D0;}
	.st1{fill:#706F6F;}
	.st2{fill:#3C3C3B;}
	.st3{fill:#F28767;}
	.st4{opacity:0.1;enable-background:new    ;}
	.st5{fill:#EDEDED;}
</style>
<path id="patty" class="st0" d="M884.6,659l-12.5-28.2l-35.6,53.4c-0.4,0-0.9,0.1-1.3,0.1l-42.7-44.5l-32.6,48.9L720,645.2
	l-43.5,50.7l-38-43.5l-43.5,48.9l-30.8-43.5l-39.8,45.2l-34.4-43.5l-45.3,43.5l-34.4-43.5l-47.1,41.6L329,656.1l-39.8,43.5
	l-30.8-48.9l-47.1,45.2l-27.1-52.5l-41.6,47.1l-29-48.9l-38,43.5L43,636.2l-25.9,28.6L5.2,678l11.4,10.9c0.1,10.7,0.6,21.3,1.4,31.9
	L132.7,1103c0,0,4.5,63,316.4,66c311.9-3,316.4-66,316.4-66L885,704.8c0.2-5.1,0.3-10.2,0.4-15.3L893,678L884.6,659L884.6,659z
	 M166.9,1091.7L77.2,728.1l1.9-0.5l89.7,363.6L166.9,1091.7z M214.1,1092.1L148,749.6l2-0.4l66.1,342.5L214.1,1092.1z M266.1,1097.3
	l-47.2-343.6l2-0.3l47.2,343.6L266.1,1097.3z M318,1102.5l-23.6-358.3l2-0.1l23.6,358.3L318,1102.5L318,1102.5z M367.2,1107.7h-2
	V749.4h2V1107.7z M424.6,1107.7h-2V749.4h2V1107.7z M479.9,1113.2h-2V754.8h2V1113.2z M537.2,1107.7h-2V749.4h2V1107.7z
	 M584.5,1102.5l-2-0.1l23.6-344.2l2,0.1L584.5,1102.5z M636.4,1097.3l-2-0.3L681.7,744l2,0.3L636.4,1097.3z M686.4,1091.7
	l66.1-342.5l2,0.4l-66.1,342.5L686.4,1091.7z M735.6,1097.1l-1.9-0.5L823.3,733l1.9,0.5L735.6,1097.1L735.6,1097.1z"/>
<g id="patty_lines">
	
		<rect x="122" y="722.4" transform="matrix(0.9709 -0.2396 0.2396 0.9709 -214.3191 55.9562)" class="st1" width="2" height="374.5"/>
	
		<rect x="592.2" y="914" transform="matrix(0.2396 -0.9709 0.9709 0.2396 -295.6611 1452.5875)" class="st1" width="374.5" height="2"/>
	
		<rect x="181" y="746.2" transform="matrix(0.9819 -0.1894 0.1894 0.9819 -171.1151 51.1503)" class="st1" width="2" height="348.9"/>
	
		<rect x="546" y="919.6" transform="matrix(0.1894 -0.9819 0.9819 0.1894 -319.982 1453.535)" class="st1" width="348.9" height="2"/>
	
		<rect x="242.4" y="752" transform="matrix(0.9907 -0.1361 0.1361 0.9907 -123.6467 41.7234)" class="st1" width="2" height="346.9"/>
	
		<rect x="480.9" y="919.6" transform="matrix(0.1328 -0.9911 0.9911 0.1328 -340.9536 1451.5751)" class="st1" width="356.2" height="2"/>
	
		<rect x="306.2" y="743.7" transform="matrix(0.9978 -6.575144e-02 6.575144e-02 0.9978 -60.0427 22.1976)" class="st1" width="2" height="359.1"/>
	
		<rect x="422.8" y="929.4" transform="matrix(6.836351e-02 -0.9977 0.9977 6.836351e-02 -373.6259 1460.6864)" class="st1" width="345" height="2"/>
	<rect x="365.2" y="749.4" class="st1" width="2" height="358.3"/>
	<rect x="535.2" y="749.4" class="st1" width="2" height="358.3"/>
	<rect x="422.6" y="749.4" class="st1" width="2" height="358.3"/>
	<rect x="477.9" y="754.8" class="st1" width="2" height="358.4"/>
</g>
<path id="cake" class="st2" d="M75.6,685.1l38-43.5l29,48.9l41.6-47.1l27.1,52.5l47.1-45.2l30.8,48.9l39.8-43.5l34.4,45.2l47.1-41.6
	l34.4,43.5l45.3-43.5l34.4,43.5l39.8-45.2l30.8,43.5l43.5-48.9l38,43.5l43.5-50.7l39.8,43.5l32.6-48.9l42.7,44.5
	c0.4,0,0.9-0.1,1.3-0.1l35.6-53.4l12.5,28.2c-3.5-61.9-19.2-120.3-44.7-172.9c-3.4,5.5-7.2,10.8-11.3,15.9
	c-3.8,7.2-9.8,12.7-15.1,16.5c-46,44.3-119.3,71.3-186.3,67.1c-152,5.4-294.5-129-447.4-85c-52.1,15-110.9,63.3-140.7,105.8
	c-4.7-5-9-9.9-12.8-14.9c-4.9,23.8-8,48.3-9.1,73.3L43,636.2L75.6,685.1L75.6,685.1z"/>
<path id="frosting" class="st3" d="M743.8,263.9c-2-132.8-333.4-365.6-405.1-214.8c56.9-4.4,104.2,50.5,76.7,100.1
	c-29.9,53.9-90.1,11.9-145.2,13.2c-131.6,3.1-188.8,122.5-189.3,230C12.8,443.1-30.6,517.6,26.2,591.5c3.8,5,8.1,9.9,12.8,14.9
	c29.8-42.5,88.6-90.8,140.7-105.8c152.9-44,295.4,90.3,447.4,85c67,4.2,140.3-22.8,186.3-67.1c5.4-3.8,11.4-9.2,15.1-16.5
	c4.1-5.1,7.9-10.4,11.3-15.9C878.3,424.3,866,342.1,743.8,263.9L743.8,263.9z M638,177.4c5.2,0,9.5,4.2,9.5,9.4s-4.2,9.4-9.5,9.4
	s-9.4-4.2-9.4-9.4S632.8,177.4,638,177.4z M630.9,271.9c6.5,0,11.8,5.3,11.8,11.8c0,0.3,0,0.6,0,0.8c-0.4,6.1-5.5,11-11.8,11
	s-11.8-5.3-11.8-11.8c0-3.4,1.4-6.4,3.7-8.6C625,273.1,627.8,271.9,630.9,271.9L630.9,271.9z M534.1,307.3c0,3.9-3.2,7.1-7.1,7.1
	s-7.1-3.2-7.1-7.1s3.2-7.1,7.1-7.1S534.1,303.4,534.1,307.3z M579,111.3c6.5,0,11.8,5.3,11.8,11.8c0,6.5-5.3,11.8-11.8,11.8
	s-11.8-5.3-11.8-11.8S572.5,111.3,579,111.3z M564.8,205.8c3.9,0,7.1,3.2,7.1,7.1s-3.2,7.1-7.1,7.1s-7.1-3.2-7.1-7.1
	S560.9,205.8,564.8,205.8z"/>
<g id="shadow">
	<path class="st4" d="M286.5,271.9c43.1,11.3,88.8,34.7,126.6,31.9c42.7-3.1,71.2-28.4,86.3-62.3c27.4-61.4,10.7-151-45.7-186.9v9.4
		c33.2,56.1,33.1,141.7-17.4,175c-12,7.9-26.7,12.8-44.6,13.7c-12.1,0.6-25.4-0.6-39.4-2.4c-69.5-9.3-154.4-35.6-175.3,59
		C204.6,261.3,244.3,260.8,286.5,271.9L286.5,271.9z"/>
	<path class="st4" d="M619.5,401c-129.4,30.8-344.3-144.9-435.2,24.9c27.9-27.9,80.4-18.7,115.9-12.1
		c88.9,16.6,157.7,52.6,250.2,46.6c48.8-3.1,124.1-26.6,161.2-71.5C698.9,397.7,659.5,398,619.5,401L619.5,401z"/>
</g>
<g id="sprinkles">
	<path class="st5" d="M579,111.3c-6.5,0-11.8,5.3-11.8,11.8c0,6.5,5.3,11.8,11.8,11.8s11.8-5.3,11.8-11.8S585.5,111.3,579,111.3z"/>
	<path class="st5" d="M638,177.4c-5.2,0-9.4,4.2-9.4,9.4s4.2,9.4,9.4,9.4s9.5-4.2,9.5-9.4S643.2,177.4,638,177.4z"/>
	<path class="st5" d="M564.8,205.8c-3.9,0-7.1,3.2-7.1,7.1s3.2,7.1,7.1,7.1s7.1-3.2,7.1-7.1S568.7,205.8,564.8,205.8z"/>
	<path class="st5" d="M630.9,271.9c-3.1,0-6,1.2-8.1,3.2c-2.3,2.1-3.7,5.2-3.7,8.6c0,6.5,5.3,11.8,11.8,11.8s11.3-4.8,11.8-11
		c0-0.3,0-0.5,0-0.8C642.7,277.2,637.5,271.9,630.9,271.9L630.9,271.9z"/>
	<path class="st5" d="M527,300.2c-3.9,0-7.1,3.2-7.1,7.1s3.2,7.1,7.1,7.1s7.1-3.2,7.1-7.1S531,300.2,527,300.2z"/>
</g>
</svg>
